<?xml version="1.0" encoding="UTF-8"?>
<svg version="1.1" xmlns="http://www.w3.org/2000/svg" width="512" height="512">
<path d="M0 0 C1.18104309 -0.00570007 2.36208618 -0.01140015 3.57891846 -0.01727295 C6.05276616 -0.02664188 8.52662589 -0.03322424 11.00048828 -0.03710938 C14.77007532 -0.04688654 18.53913243 -0.0780159 22.30859375 -0.109375 C24.7265593 -0.1159002 27.1445287 -0.12115256 29.5625 -0.125 C31.23623688 -0.1435202 31.23623688 -0.1435202 32.94378662 -0.16241455 C42.66526178 -0.1348519 50.09803602 1.47309114 57.2890625 8.234375 C62.11778741 13.74043236 64.12048644 19.9966188 64.17675781 27.22998047 C64.18621933 28.23506653 64.19568085 29.24015259 64.20542908 30.2756958 C64.20982498 31.36291931 64.21422089 32.45014282 64.21875 33.5703125 C64.22576431 34.70458679 64.23277863 35.83886108 64.24000549 37.00750732 C64.2576016 40.69775305 64.26386786 44.38783873 64.265625 48.078125 C64.26663712 49.95839386 64.26663712 49.95839386 64.26766968 51.87664795 C64.25167003 70.5178857 63.8115431 88.74461009 61.015625 107.203125 C60.84401855 108.3772998 60.67241211 109.55147461 60.49560547 110.76123047 C50.66320415 176.56538909 26.26454156 237.30019057 -16.984375 288.203125 C-17.95061581 289.35538911 -18.91675508 290.50773838 -19.8828125 291.66015625 C-25.02850866 297.76368454 -30.25694609 303.63915663 -35.98828125 309.20703125 C-37.85248767 311.07123767 -39.54393836 312.99454061 -41.234375 315.015625 C-45.82005971 320.35497549 -51.09549238 324.9699689 -56.30908203 329.68066406 C-57.95123738 331.17301042 -59.57731783 332.68100452 -61.19921875 334.1953125 C-62.19009478 335.11459345 -63.18097976 336.03386476 -64.171875 336.953125 C-65.05230469 337.77296875 -65.93273437 338.5928125 -66.83984375 339.4375 C-68.984375 341.203125 -68.984375 341.203125 -70.984375 341.203125 C-70.97077942 341.86820572 -70.95718384 342.53328644 -70.94317627 343.21852112 C-70.8420972 352.36911315 -71.45948369 361.4276741 -72.15625 370.54296875 C-72.24805416 371.75983462 -72.24805416 371.75983462 -72.34171295 373.00128365 C-72.6654002 377.28959195 -72.99443624 381.57744899 -73.328125 385.86499023 C-73.66855566 390.25227768 -73.99084264 394.64069946 -74.30894089 399.0296545 C-74.55974701 402.44429465 -74.82401359 405.85780202 -75.09177399 409.27115059 C-75.21628352 410.88723146 -75.33593398 412.50369543 -75.45027924 414.12052727 C-76.70100135 431.66477282 -79.99714161 444.26678119 -93.52001953 456.15814209 C-97.26540407 459.2661545 -101.24203994 461.91930529 -105.328125 464.5546875 C-106.2034639 465.12807861 -107.0788028 465.70146973 -107.98066711 466.29223633 C-110.81087101 468.14431709 -113.64748374 469.98630759 -116.484375 471.828125 C-119.44339329 473.75973502 -122.40083612 475.6937396 -125.35810852 477.62802124 C-127.34657228 478.92850916 -129.33557647 480.22817112 -131.32511902 481.52700806 C-137.56911555 485.60700963 -143.78421513 489.72688046 -149.97265625 493.890625 C-150.734039 494.40225189 -151.49542175 494.91387878 -152.27987671 495.44100952 C-155.14411308 497.36669711 -158.00785648 499.29298912 -160.86425781 501.23028564 C-162.78247579 502.53093984 -164.70524146 503.82460857 -166.62890625 505.1171875 C-167.69471924 505.8385791 -168.76053223 506.5599707 -169.85864258 507.30322266 C-178.12323171 512.32665721 -185.35023289 513.1265252 -194.984375 512.203125 C-201.4429163 510.50398967 -207.48375937 506.95113398 -211.24121094 501.31933594 C-215.5204497 493.45193675 -216.68746851 485.30278959 -217.984375 476.578125 C-218.23179439 474.99440307 -218.48067765 473.4109092 -218.73095703 471.82763672 C-219.24259543 468.57454204 -219.74468099 465.32018421 -220.23925781 462.06445312 C-220.95734027 457.35087418 -221.71311354 452.64391062 -222.4765625 447.9375 C-222.82680504 445.76276116 -223.17615725 443.58788229 -223.52490234 441.41290283 C-223.74610309 440.03415211 -223.96809532 438.65552811 -224.19091797 437.27703857 C-224.49929619 435.35994226 -224.80057905 433.4417087 -225.1015625 431.5234375 C-225.27284668 430.44336426 -225.44413086 429.36329102 -225.62060547 428.25048828 C-225.98436307 425.20322496 -226.04930915 422.26882125 -225.984375 419.203125 C-226.974375 419.533125 -227.964375 419.863125 -228.984375 420.203125 C-231.33341739 420.40243769 -233.69021628 420.51579222 -236.046875 420.578125 C-237.29597656 420.62710937 -238.54507813 420.67609375 -239.83203125 420.7265625 C-249.9349381 420.07468785 -257.21927704 412.6940496 -263.94458008 405.88989258 C-264.89257049 404.94869397 -265.84161759 404.00855868 -266.79162598 403.06939697 C-269.34638392 400.53725328 -271.88528722 397.98976724 -274.42077851 395.43834901 C-277.08945637 392.7569188 -279.77041961 390.08781475 -282.4493866 387.41667175 C-286.94427674 382.93085116 -291.42858399 378.43465396 -295.90698242 373.93237305 C-301.06800597 368.74414353 -306.24679419 363.57417139 -311.43517572 358.41331178 C-315.90753394 353.96372064 -320.36997844 349.50436319 -324.82443923 345.03685492 C-327.47696793 342.37657336 -330.13265824 339.71968418 -332.79737282 337.07160378 C-335.30333151 334.58020171 -337.79652958 332.07666771 -340.28083038 329.56367493 C-341.61815516 328.21669986 -342.9676535 326.88184453 -344.31761169 325.54753113 C-350.21903076 319.54321153 -355.9424262 312.81327122 -356.5078125 304.05078125 C-356.43433594 302.17712891 -356.43433594 302.17712891 -356.359375 300.265625 C-356.32585937 298.99847656 -356.29234375 297.73132813 -356.2578125 296.42578125 C-355.984375 293.203125 -355.984375 293.203125 -354.984375 290.203125 C-355.69432114 290.15327957 -356.40426727 290.10343414 -357.13572693 290.05207825 C-364.9703789 289.45641074 -372.69180876 288.46411367 -380.45703125 287.27734375 C-381.70133408 287.08848099 -382.9456369 286.89961823 -384.22764587 286.70503235 C-386.84067223 286.30637711 -389.4533452 285.90539924 -392.06567383 285.50219727 C-394.7205714 285.09271072 -397.3764203 284.69059716 -400.03344727 284.29516602 C-403.90561114 283.71712759 -407.77520094 283.12402241 -411.64453125 282.52734375 C-412.81879166 282.35426193 -413.99305206 282.18118011 -415.20289612 282.00285339 C-426.73864275 280.18598793 -436.89153658 277.85210849 -444.234375 268.265625 C-447.31181862 262.88009866 -448.3118612 258.13978337 -448.421875 251.953125 C-448.46183594 250.73109375 -448.50179688 249.5090625 -448.54296875 248.25 C-447.85586709 238.85335716 -440.59738197 230.33048058 -435.484375 222.828125 C-433.89122962 220.4709702 -432.30292632 218.11056785 -430.71484375 215.75 C-430.28024338 215.10501556 -429.84564301 214.46003113 -429.39787292 213.79550171 C-425.42109386 207.88162759 -421.50593696 201.92804942 -417.59765625 195.96875 C-416.9560556 194.99122772 -416.31445496 194.01370544 -415.65341187 193.00656128 C-413.0602379 189.05514487 -410.4673548 185.10355842 -407.88085938 181.14776611 C-406.05028738 178.34886098 -404.21499113 175.55310322 -402.37890625 172.7578125 C-401.83776688 171.92743469 -401.2966275 171.09705688 -400.73908997 170.24151611 C-392.82435618 158.21593454 -384.56173254 146.07499705 -369.984375 142.203125 C-354.99343662 139.76641868 -339.67003373 139.06721979 -324.53515625 137.91601562 C-320.83363316 137.63438356 -317.13269094 137.34577795 -313.43185616 137.0552578 C-310.54076827 136.82918609 -307.64938355 136.60710921 -304.75790024 136.38615799 C-302.74003796 136.23119709 -300.72244594 136.07272954 -298.7048645 135.91415405 C-291.44731861 135.36852817 -284.26238255 135.06454442 -276.984375 135.203125 C-276.70384277 134.60040771 -276.42331055 133.99769043 -276.13427734 133.37670898 C-274.46757979 130.22626135 -272.04481433 127.82975231 -269.609375 125.265625 C-268.51661626 124.10185428 -267.42417711 122.9377834 -266.33203125 121.7734375 C-265.77402832 121.18079102 -265.21602539 120.58814453 -264.64111328 119.97753906 C-263.06972081 118.2945328 -261.52099862 116.59405938 -259.98046875 114.8828125 C-253.50556657 107.70882339 -246.71597806 101.05203243 -239.52636719 94.59667969 C-238.07463817 93.28469912 -236.64208874 91.95158485 -235.2109375 90.6171875 C-228.70502552 84.56916962 -221.9042421 79.02996571 -214.85546875 73.63720703 C-212.9642412 72.18769364 -211.08382173 70.72485832 -209.203125 69.26171875 C-150.55424934 24.02654456 -73.82720072 0.28324344 0 0 Z " fill="#D6D5FA" transform="translate(447.984375,-0.203125)"/>
<path d="M0 0 C-2.9829954 4.01774265 -5.98406795 8.01078886 -9.12109375 11.91015625 C-24.62612979 31.24708448 -37.30706054 52.18007139 -49 74 C-49.52045898 74.92731934 -50.04091797 75.85463867 -50.57714844 76.81005859 C-51.05442383 77.69129395 -51.53169922 78.5725293 -52.0234375 79.48046875 C-52.45317871 80.25672607 -52.88291992 81.0329834 -53.32568359 81.83276367 C-54.24375786 83.98072305 -54.24375786 83.98072305 -53.22541249 85.93680358 C-52.00124064 87.99791117 -50.76014341 89.48841575 -49.0677166 91.17837906 C-48.46459046 91.78548729 -47.86146433 92.39259552 -47.24006164 93.01810098 C-46.57664422 93.67569272 -45.91322679 94.33328446 -45.22970581 95.01080322 C-44.52562595 95.71659193 -43.8215461 96.42238063 -43.09613049 97.14955688 C-40.73011321 99.51887457 -38.35700692 101.88096229 -35.98388672 104.24316406 C-34.2886025 105.93788429 -32.59375826 107.63304473 -30.89932251 109.32861328 C-26.77109181 113.45735922 -22.63828596 117.58148368 -18.50344835 121.70361212 C-13.69240387 126.50036239 -8.88701185 131.30275853 -4.08196677 136.10551736 C4.48718375 144.67029076 13.06079096 153.23058842 21.63720703 161.78808594 C29.96832584 170.10084637 38.29734123 178.41570505 46.62353516 186.73339844 C47.39339184 187.50246696 47.39339184 187.50246696 48.17880119 188.28707221 C50.75355457 190.85921551 53.32826663 193.43140016 55.90295815 196.00360537 C77.26223756 217.34215176 98.62882624 238.67336577 120 260 C149.43608177 250.39725601 177.61743274 229.56324191 200.96875 209.57421875 C203 208 203 208 206 207 C206.21643555 216.45663026 205.54576139 225.82219619 204.828125 235.2421875 C204.76692223 236.05434849 204.70571945 236.86650948 204.64266205 237.7032814 C204.31868244 241.99804434 203.98959433 246.29237995 203.65625 250.58642578 C203.31608138 254.98160741 202.99372269 259.37790491 202.67543411 263.77471733 C202.42460079 267.19364536 202.16033513 270.61144492 201.89260101 274.02908707 C201.76806805 275.64795788 201.64841887 277.26721316 201.53409576 278.88683701 C200.28512801 296.44342988 196.99771143 309.05444231 183.46435547 320.95501709 C179.71897093 324.0630295 175.74233506 326.71618029 171.65625 329.3515625 C170.7809111 329.92495361 169.9055722 330.49834473 169.00370789 331.08911133 C166.17350399 332.94119209 163.33689126 334.78318259 160.5 336.625 C157.54098171 338.55661002 154.58353888 340.4906146 151.62626648 342.42489624 C149.63780272 343.72538416 147.64879853 345.02504612 145.65925598 346.32388306 C139.41525945 350.40388463 133.20015987 354.52375546 127.01171875 358.6875 C126.250336 359.19912689 125.48895325 359.71075378 124.70449829 360.23788452 C121.84026192 362.16357211 118.97651852 364.08986412 116.12011719 366.02716064 C114.20189921 367.32781484 112.27913354 368.62148357 110.35546875 369.9140625 C109.28965576 370.6354541 108.22384277 371.3568457 107.12573242 372.10009766 C98.86114329 377.12353221 91.63414211 377.9234002 82 377 C75.5414587 375.30086467 69.50061563 371.74800898 65.74316406 366.11621094 C61.4639253 358.24881175 60.29690649 350.09966459 59 341.375 C58.75258061 339.79127807 58.50369735 338.2077842 58.25341797 336.62451172 C57.74177957 333.37141704 57.23969401 330.11705921 56.74511719 326.86132812 C56.02703473 322.14774918 55.27126146 317.44078562 54.5078125 312.734375 C54.15756996 310.55963616 53.80821775 308.38475729 53.45947266 306.20977783 C53.23827191 304.83102711 53.01627968 303.45240311 52.79345703 302.07391357 C52.48507881 300.15681726 52.18379595 298.2385837 51.8828125 296.3203125 C51.71152832 295.24023926 51.54024414 294.16016602 51.36376953 293.04736328 C51.00001193 290.00009996 50.93506585 287.06569625 51 284 C50.01 284.33 49.02 284.66 48 285 C45.65095761 285.19931269 43.29415872 285.31266722 40.9375 285.375 C39.68839844 285.42398437 38.43929687 285.47296875 37.15234375 285.5234375 C27.0494369 284.87156285 19.76509796 277.4909246 13.03979492 270.68676758 C12.09180451 269.74556897 11.14275741 268.80543368 10.19274902 267.86627197 C7.63799108 265.33412828 5.09908778 262.78664224 2.56359649 260.23522401 C-0.10508137 257.5537938 -2.78604461 254.88468975 -5.4650116 252.21354675 C-9.95990174 247.72772616 -14.44420899 243.23152896 -18.92260742 238.72924805 C-24.08363097 233.54101853 -29.26241919 228.37104639 -34.45080072 223.21018678 C-38.92315894 218.76059564 -43.38560344 214.30123819 -47.84006423 209.83372992 C-50.49259293 207.17344836 -53.14828324 204.51655918 -55.81299782 201.86847878 C-58.31895651 199.37707671 -60.81215458 196.87354271 -63.29645538 194.36054993 C-64.63378016 193.01357486 -65.9832785 191.67871953 -67.33323669 190.34440613 C-73.23465576 184.34008653 -78.9580512 177.61014622 -79.5234375 168.84765625 C-79.47445312 167.59855469 -79.42546875 166.34945312 -79.375 165.0625 C-79.34148437 163.79535156 -79.30796875 162.52820313 -79.2734375 161.22265625 C-79 158 -79 158 -78 155 C-78.70994614 154.95015457 -79.41989227 154.90030914 -80.15135193 154.84895325 C-87.9860039 154.25328574 -95.70743376 153.26098867 -103.47265625 152.07421875 C-104.71695908 151.88535599 -105.9612619 151.69649323 -107.24327087 151.50190735 C-109.85629723 151.10325211 -112.4689702 150.70227424 -115.08129883 150.29907227 C-117.7361964 149.88958572 -120.3920453 149.48747216 -123.04907227 149.09204102 C-126.92123614 148.51400259 -130.79082594 147.92089741 -134.66015625 147.32421875 C-135.83441666 147.15113693 -137.00867706 146.97805511 -138.21852112 146.79972839 C-149.75426775 144.98286293 -159.90716158 142.64898349 -167.25 133.0625 C-170.32744362 127.67697366 -171.3274862 122.93665837 -171.4375 116.75 C-171.47746094 115.52796875 -171.51742187 114.3059375 -171.55859375 113.046875 C-170.87149209 103.65023216 -163.61300697 95.12735558 -158.5 87.625 C-156.90685462 85.2678452 -155.31855132 82.90744285 -153.73046875 80.546875 C-153.29586838 79.90189056 -152.86126801 79.25690613 -152.41349792 78.59237671 C-148.43671886 72.67850259 -144.52156196 66.72492442 -140.61328125 60.765625 C-139.65088028 59.29934158 -139.65088028 59.29934158 -138.66903687 57.80343628 C-136.0758629 53.85201987 -133.4829798 49.90043342 -130.89648438 45.94464111 C-129.06591238 43.14573598 -127.23061613 40.34997822 -125.39453125 37.5546875 C-124.85339188 36.72430969 -124.3122525 35.89393188 -123.75471497 35.03839111 C-115.83998118 23.01280954 -107.57735754 10.87187205 -93 7 C-78.00906162 4.56329368 -62.68565873 3.86409479 -47.55078125 2.71289062 C-43.84925816 2.43125856 -40.14831594 2.14265295 -36.44748116 1.8521328 C-33.55639327 1.62606109 -30.66500855 1.40398421 -27.77352524 1.18303299 C-25.75566296 1.02807209 -23.73807094 0.86960454 -21.7204895 0.71102905 C-14.46294361 0.16540317 -7.27800755 -0.13858058 0 0 Z " fill="#476388" transform="translate(171,135)"/>
<path d="M0 0 C1.18104309 -0.00570007 2.36208618 -0.01140015 3.57891846 -0.01727295 C6.05276616 -0.02664188 8.52662589 -0.03322424 11.00048828 -0.03710938 C14.77007532 -0.04688654 18.53913243 -0.0780159 22.30859375 -0.109375 C24.7265593 -0.1159002 27.1445287 -0.12115256 29.5625 -0.125 C31.23623688 -0.1435202 31.23623688 -0.1435202 32.94378662 -0.16241455 C42.70524384 -0.13473855 49.84686241 1.40199126 57.015625 8.203125 C56.37866699 8.8381192 55.74170898 9.4731134 55.08544922 10.12734985 C51.0063072 14.20672578 46.95520989 18.31393192 42.8984375 22.41552734 C33.64400775 31.7680204 24.37439777 41.10531908 15.09579468 50.43382835 C9.48210668 56.07852985 3.87423199 61.72879525 -1.72070312 67.39208984 C-6.61198261 72.34309883 -11.51365562 77.28353354 -16.42818642 82.21146739 C-19.02667881 84.81778557 -21.61961828 87.42913663 -24.20013428 90.05326462 C-27.07297911 92.9742825 -29.96876038 95.87145479 -32.8671875 98.76708984 C-33.72032532 99.64179932 -34.57346313 100.51650879 -35.45245361 101.41772461 C-36.63832062 102.59121964 -36.63832062 102.59121964 -37.84814453 103.78842163 C-38.87127243 104.81984567 -38.87127243 104.81984567 -39.91506958 105.87210655 C-41.984375 107.203125 -41.984375 107.203125 -44.57247925 107.03470802 C-47.81162721 105.91790169 -49.95639004 104.11269766 -52.609375 101.953125 C-67.57261028 90.27073468 -87.18466812 85.64048394 -105.984375 87.203125 C-121.17442905 89.23685204 -134.34293909 95.19325397 -145.984375 105.203125 C-146.95375 105.96367188 -147.923125 106.72421875 -148.921875 107.5078125 C-152.16148943 110.21325684 -154.57154653 113.25732997 -156.984375 116.703125 C-157.41371338 117.31333496 -157.84305176 117.92354492 -158.28540039 118.55224609 C-167.21997444 131.59662327 -171.20532026 144.63433429 -171.296875 160.328125 C-171.30251465 161.24650146 -171.3081543 162.16487793 -171.31396484 163.11108398 C-171.12963328 180.54603773 -164.78909237 199.08086568 -152.20703125 211.44921875 C-150.984375 213.203125 -150.984375 213.203125 -151.18452358 215.06676102 C-152.18744945 217.74552692 -153.53284286 219.12071885 -155.55934143 221.13885498 C-156.32640411 221.91004166 -157.0934668 222.68122833 -157.8837738 223.4757843 C-158.73109573 224.3123204 -159.57841766 225.14885651 -160.45141602 226.01074219 C-161.33913696 226.89890121 -162.22685791 227.78706024 -163.14147949 228.70213318 C-165.57475314 231.13626786 -168.01716813 233.56103957 -170.46131635 235.98424816 C-173.0144739 238.51865694 -175.5591431 241.06155909 -178.10472107 243.60357666 C-182.92589675 248.41542659 -187.754669 253.21957786 -192.58621019 258.02101731 C-198.08659633 263.48787595 -203.57847034 268.96325159 -209.06964219 274.439363 C-220.3651014 285.70346119 -231.67121458 296.95680355 -242.984375 308.203125 C-246.13664651 306.80675979 -248.26377882 305.17141525 -250.69232178 302.73568726 C-251.7733744 301.65875862 -251.7733744 301.65875862 -252.87626648 300.56007385 C-253.65669815 299.77245163 -254.43712982 298.98482941 -255.24121094 298.17333984 C-256.07084854 297.34399429 -256.90048615 296.51464874 -257.75526428 295.66017151 C-260.49785964 292.91618219 -263.2333018 290.16517527 -265.96875 287.4140625 C-267.86776267 285.51020932 -269.7682781 283.60785905 -271.66876221 281.70547485 C-276.15985351 277.20817009 -280.64582267 272.70579189 -285.12997174 268.20156634 C-290.23605038 263.07312456 -295.34781659 257.95036802 -300.46006727 252.82807994 C-310.97450846 242.29273978 -321.48178965 231.75028518 -331.984375 221.203125 C-330.78367638 217.53161883 -329.54798188 214.08732992 -327.76953125 210.65625 C-327.33640625 209.82053467 -326.90328125 208.98481934 -326.45703125 208.1237793 C-325.99167969 207.24246338 -325.52632813 206.36114746 -325.046875 205.453125 C-324.31597656 204.06637573 -324.31597656 204.06637573 -323.5703125 202.65161133 C-311.67312217 180.33099894 -297.47638885 158.57685537 -280.78515625 139.51953125 C-279.09980261 137.58337117 -277.77685746 135.8567344 -276.44921875 133.640625 C-274.53542536 130.4560728 -272.09066572 127.88357747 -269.546875 125.203125 C-268.46323513 124.04846469 -267.37991052 122.89350844 -266.296875 121.73828125 C-265.74515625 121.15191895 -265.1934375 120.56555664 -264.625 119.96142578 C-263.06061624 118.28483474 -261.51859761 116.59090319 -259.984375 114.88671875 C-253.50782418 107.71171637 -246.71737548 101.05328713 -239.52636719 94.59667969 C-238.07463817 93.28469912 -236.64208874 91.95158485 -235.2109375 90.6171875 C-228.70502552 84.56916962 -221.9042421 79.02996571 -214.85546875 73.63720703 C-212.9642412 72.18769364 -211.08382173 70.72485832 -209.203125 69.26171875 C-150.55424934 24.02654456 -73.82720072 0.28324344 0 0 Z " fill="#F0F0FA" transform="translate(447.984375,-0.203125)"/>
<path d="M0 0 C4.51322426 3.34635796 8.62093067 7.01699528 12.62890625 10.94921875 C13.25539063 11.55121094 13.881875 12.15320313 14.52734375 12.7734375 C28.39390641 27.23607413 33.22314355 47.48606788 32.8984375 66.9296875 C32.10336607 87.49579636 21.81389585 105.26036065 7.23046875 119.25 C-10.05987178 134.04157039 -30.19814937 138.51548048 -52.51660156 137.22412109 C-71.71927046 135.37480488 -88.97731161 124.40863125 -101.37109375 109.94921875 C-114.91100794 91.44466935 -119.96359727 70.52396887 -117.10302734 47.82177734 C-113.75032837 29.74944949 -102.43457026 12.66472222 -87.953125 1.6953125 C-83.60741314 -1.24346693 -79.05615072 -3.70132221 -74.37109375 -6.05078125 C-73.43652344 -6.55609375 -72.50195312 -7.06140625 -71.5390625 -7.58203125 C-48.69446732 -18.17336021 -20.48621964 -13.74693924 0 0 Z " fill="#466388" transform="translate(393.37109375,99.05078125)"/>
<path d="M0 0 C-2.9829954 4.01774265 -5.98406795 8.01078886 -9.12109375 11.91015625 C-39.58659063 49.90485199 -62.45015776 94.20696726 -74.35107422 141.46484375 C-75.50990626 145.99204915 -76.76098512 150.49422425 -78 155 C-86.55941771 154.39904195 -94.99241666 153.37026574 -103.47265625 152.07421875 C-104.71695908 151.88535599 -105.9612619 151.69649323 -107.24327087 151.50190735 C-109.85629723 151.10325211 -112.4689702 150.70227424 -115.08129883 150.29907227 C-117.7361964 149.88958572 -120.3920453 149.48747216 -123.04907227 149.09204102 C-126.92123614 148.51400259 -130.79082594 147.92089741 -134.66015625 147.32421875 C-135.83441666 147.15113693 -137.00867706 146.97805511 -138.21852112 146.79972839 C-149.75426775 144.98286293 -159.90716158 142.64898349 -167.25 133.0625 C-170.32744362 127.67697366 -171.3274862 122.93665837 -171.4375 116.75 C-171.47746094 115.52796875 -171.51742187 114.3059375 -171.55859375 113.046875 C-170.87149209 103.65023216 -163.61300697 95.12735558 -158.5 87.625 C-156.90685462 85.2678452 -155.31855132 82.90744285 -153.73046875 80.546875 C-153.29586838 79.90189056 -152.86126801 79.25690613 -152.41349792 78.59237671 C-148.43671886 72.67850259 -144.52156196 66.72492442 -140.61328125 60.765625 C-139.65088028 59.29934158 -139.65088028 59.29934158 -138.66903687 57.80343628 C-136.0758629 53.85201987 -133.4829798 49.90043342 -130.89648438 45.94464111 C-129.06591238 43.14573598 -127.23061613 40.34997822 -125.39453125 37.5546875 C-124.85339188 36.72430969 -124.3122525 35.89393188 -123.75471497 35.03839111 C-115.83998118 23.01280954 -107.57735754 10.87187205 -93 7 C-78.00906162 4.56329368 -62.68565873 3.86409479 -47.55078125 2.71289062 C-43.84925816 2.43125856 -40.14831594 2.14265295 -36.44748116 1.8521328 C-33.55639327 1.62606109 -30.66500855 1.40398421 -27.77352524 1.18303299 C-25.75566296 1.02807209 -23.73807094 0.86960454 -21.7204895 0.71102905 C-14.46294361 0.16540317 -7.27800755 -0.13858058 0 0 Z " fill="#E45A6E" transform="translate(171,135)"/>
<path d="M0 0 C0.21643555 9.45663026 -0.45423861 18.82219619 -1.171875 28.2421875 C-1.23307777 29.05434849 -1.29428055 29.86650948 -1.35733795 30.7032814 C-1.68131756 34.99804434 -2.01040567 39.29237995 -2.34375 43.58642578 C-2.68391862 47.98160741 -3.00627731 52.37790491 -3.32456589 56.77471733 C-3.57539921 60.19364536 -3.83966487 63.61144492 -4.10739899 67.02908707 C-4.23193195 68.64795788 -4.35158113 70.26721316 -4.46590424 71.88683701 C-5.71487199 89.44342988 -9.00228857 102.05444231 -22.53564453 113.95501709 C-26.28102907 117.0630295 -30.25766494 119.71618029 -34.34375 122.3515625 C-35.65675835 123.21164917 -35.65675835 123.21164917 -36.99629211 124.08911133 C-39.82649601 125.94119209 -42.66310874 127.78318259 -45.5 129.625 C-48.45901829 131.55661002 -51.41646112 133.4906146 -54.37373352 135.42489624 C-56.36219728 136.72538416 -58.35120147 138.02504612 -60.34074402 139.32388306 C-66.58474055 143.40388463 -72.79984013 147.52375546 -78.98828125 151.6875 C-80.13035538 152.45494034 -80.13035538 152.45494034 -81.29550171 153.23788452 C-84.15973808 155.16357211 -87.02348148 157.08986412 -89.87988281 159.02716064 C-91.79810079 160.32781484 -93.72086646 161.62148357 -95.64453125 162.9140625 C-96.71034424 163.6354541 -97.77615723 164.3568457 -98.87426758 165.10009766 C-107.13885671 170.12353221 -114.36585789 170.9234002 -124 170 C-130.4585413 168.30086467 -136.49938437 164.74800898 -140.25683594 159.11621094 C-144.5360747 151.24881175 -145.70309351 143.09966459 -147 134.375 C-147.24741939 132.79127807 -147.49630265 131.2077842 -147.74658203 129.62451172 C-148.25822043 126.37141704 -148.76030599 123.11705921 -149.25488281 119.86132812 C-149.97296527 115.14774918 -150.72873854 110.44078562 -151.4921875 105.734375 C-151.84243004 103.55963616 -152.19178225 101.38475729 -152.54052734 99.20977783 C-152.76172809 97.83102711 -152.98372032 96.45240311 -153.20654297 95.07391357 C-153.51492119 93.15681726 -153.81620405 91.2385837 -154.1171875 89.3203125 C-154.28847168 88.24023926 -154.45975586 87.16016602 -154.63623047 86.04736328 C-154.99998807 83.00009996 -155.06493415 80.06569625 -155 77 C-154.16082031 76.78085937 -153.32164062 76.56171875 -152.45703125 76.3359375 C-149.08857134 75.44779052 -145.7239795 74.54702466 -142.36132812 73.63720703 C-140.78015149 73.21052475 -139.19810643 72.78704833 -137.61523438 72.36669922 C-94.15241397 60.77140241 -55.05188841 40.17263397 -18.875 13.6875 C-18.10542969 13.12506592 -17.33585938 12.56263184 -16.54296875 11.9831543 C-12.02246401 8.63271475 -7.77105625 5.11107594 -3.63330078 1.29614258 C-2 0 -2 0 0 0 Z " fill="#D82E44" transform="translate(377,342)"/>
<path d="M0 0 C3.1272443 1.38909882 5.25437051 3.00336136 7.66998291 5.41601562 C8.38227051 6.12266357 9.09455811 6.82931152 9.82843018 7.55737305 C10.59951111 8.33250244 11.37059204 9.10763184 12.16503906 9.90625 C13.39486511 11.13081909 13.39486511 11.13081909 14.64953613 12.38012695 C17.35995515 15.0817383 20.06298745 17.79060584 22.765625 20.5 C24.64291659 22.37594493 26.5205015 24.25159256 28.39837646 26.12695312 C32.33266647 30.05760675 36.26272513 33.99245414 40.19042969 37.9296875 C44.7355844 42.48574126 49.28791984 47.0345248 53.84402299 51.57962799 C57.75433526 55.48087606 61.66075126 59.3859934 65.56391311 63.29439545 C67.89581191 65.6294168 70.22943807 67.9626593 72.56580353 70.29321289 C75.16623929 72.88859726 77.76022381 75.49025821 80.35253906 78.09375 C81.13171692 78.86887939 81.91089478 79.64400879 82.71368408 80.44262695 C83.41469238 81.1492749 84.11570068 81.85592285 84.83795166 82.58398438 C85.45220127 83.19898804 86.06645088 83.8139917 86.69931412 84.44763184 C88 86 88 86 88 88 C18.0960164 117.366415 18.0960164 117.366415 -1.11701965 110.2116394 C-8.85593509 106.67313403 -14.39420274 101.33830005 -20.29296875 95.37109375 C-21.33409674 94.33334109 -22.37596537 93.29633102 -23.41853333 92.26002502 C-25.58385952 90.10201665 -27.74001644 87.93536017 -29.88989258 85.76196289 C-32.64818675 82.97496852 -35.4286226 80.21131466 -38.21613598 77.45358181 C-40.36382722 75.32391912 -42.49951598 73.18254088 -44.63170815 71.03737068 C-45.65313035 70.01261325 -46.67827938 68.99155662 -47.7071743 67.97430229 C-49.13611347 66.5580188 -50.54742058 65.12401156 -51.95776367 63.68920898 C-53.16827644 62.47272926 -53.16827644 62.47272926 -54.40324402 61.23167419 C-56 59 -56 59 -56.07528687 57.05085754 C-54.49918588 54.0448145 -52.23789535 51.84662619 -49.83764648 49.49707031 C-49.30105408 48.96003983 -48.76446167 48.42300934 -48.21160889 47.8697052 C-46.43845615 46.09864037 -44.65491874 44.33843482 -42.87109375 42.578125 C-41.63875659 41.35138377 -40.40708067 40.12397796 -39.17604065 38.89593506 C-35.93574918 35.66709252 -32.6865494 32.44736066 -29.4354248 29.22943115 C-26.11884989 25.94355589 -22.81076166 22.64916121 -19.50195312 19.35546875 C-13.0095892 12.89526985 -6.50778426 6.4446621 0 0 Z " fill="#364A67" transform="translate(203,309)"/>
<path d="M0 0 C9.27908953 7.45665965 15.69825083 17.41396868 17.9375 29.25 C18.94315721 43.34854052 15.99163437 55.5904145 6.75 66.375 C-2.03268755 75.7164556 -12.03323996 81.20881967 -24.95385742 81.77392578 C-37.83863119 81.97404318 -48.03176846 78.92688566 -57.9140625 70.33984375 C-66.59318568 61.89742393 -72.04181707 50.58746347 -72.35522461 38.41235352 C-72.47891707 24.49618824 -68.65367264 14.2926922 -58.9609375 4.0234375 C-42.25732563 -11.73580055 -18.84377028 -12.94214991 0 0 Z " fill="#4ABCFC" transform="translate(378.0625,124.75)"/>
<path d="M0 0 C10.19257374 4.78880362 15.21031461 16.93542729 19 27 C25.76666064 45.96199588 24.63658148 65.86227076 16.41650391 84.14770508 C7.18203583 103.38809929 -8.85015631 116.89017603 -28.67578125 124.390625 C-48.41970256 130.21333907 -69.62401245 128.49728128 -87.9375 119.1875 C-94.24265183 115.46611069 -100.90116866 111.14824701 -105 105 C-98.4 98.4 -91.8 91.8 -85 85 C-80.51751934 86.79299226 -77.48510345 88.66226419 -73.671875 91.46484375 C-66.94719846 95.32858334 -60.30658426 96.53652595 -52.625 96.4375 C-51.79500488 96.42992676 -50.96500977 96.42235352 -50.10986328 96.41455078 C-38.63225684 96.10749511 -29.19260354 91.8342612 -20.83984375 83.96484375 C-11.12376903 73.66762064 -7.41444711 62.32661353 -7.69140625 48.33203125 C-8.54769738 39.08625483 -12.35558292 31.79379839 -17.609375 24.27734375 C-19 22 -19 22 -19 19 C-17.25585938 16.9152832 -17.25585938 16.9152832 -14.84375 14.55078125 C-13.55791016 13.27944336 -13.55791016 13.27944336 -12.24609375 11.98242188 C-11.33988281 11.10134766 -10.43367188 10.22027344 -9.5 9.3125 C-8.59378906 8.41982422 -7.68757813 7.52714844 -6.75390625 6.60742188 C-4.50914832 4.39810749 -2.25770002 2.19607467 0 0 Z " fill="#354A68" transform="translate(403,109)"/>
<path d="M0 0 C4.09078595 3.42484405 5.38689527 5.9187505 6.5625 11.125 C7.00669512 16.281526 5.44053758 20.05054658 2.27330971 24.02431774 C-2.36992648 29.29734589 -7.22898598 34.31456721 -12.19775391 39.28051758 C-13.48934166 40.57714325 -13.48934166 40.57714325 -14.80702209 41.89996338 C-17.14584609 44.24660286 -19.48687642 46.59099168 -21.82928896 48.93404603 C-23.29546795 50.40093983 -24.76093097 51.86854506 -26.2261467 53.33640099 C-31.34518881 58.46466041 -36.46677241 63.59036541 -41.59082031 68.71362305 C-46.3573266 73.47952688 -51.11820658 78.25100073 -55.87652838 83.02507478 C-59.97505215 87.13667967 -64.07742777 91.24441428 -68.18281686 95.34916419 C-70.62933475 97.79542761 -73.07428833 100.24320502 -75.51536942 102.69489479 C-78.23333851 105.42435683 -80.95929646 108.14575249 -83.68603516 110.86645508 C-84.89089821 112.07974739 -84.89089821 112.07974739 -86.12010193 113.31755066 C-86.86571884 114.05897308 -87.61133575 114.80039551 -88.37954712 115.56428528 C-89.02216303 116.20744596 -89.66477894 116.85060663 -90.32686806 117.51325703 C-95.59582556 122.12177722 -99.58480207 122.7865594 -106.4296875 122.6015625 C-110.3335649 122.12547989 -112.46980391 120.9469168 -115.3125 118.25 C-117.9115635 114.58368821 -118.78678036 111.92493905 -118.875 107.4375 C-118.91753906 106.46167969 -118.96007812 105.48585938 -119.00390625 104.48046875 C-117.22469772 96.16744359 -109.07346861 89.72387832 -103.26538086 83.9440918 C-102.37520767 83.05041397 -101.48503448 82.15673615 -100.56788635 81.23597717 C-98.1469984 78.80604388 -95.71991484 76.38239213 -93.2913177 73.96016669 C-90.74153925 71.41548453 -88.19668106 68.86588901 -85.65101624 66.3170929 C-81.38022487 62.04267439 -77.10525945 57.77246466 -72.82788086 53.50463867 C-67.88894541 48.57660629 -62.95728405 43.64138236 -58.02929777 38.70240277 C-53.78653377 34.45055509 -49.53987523 30.20262675 -45.28995234 25.95793468 C-42.75648819 23.42758159 -40.22437829 20.89591302 -37.69578362 18.36069298 C-34.87964688 15.53769168 -32.05536319 12.72292953 -29.23022461 9.90893555 C-27.98092667 8.65356491 -27.98092667 8.65356491 -26.70639038 7.37283325 C-25.93408585 6.60616837 -25.16178131 5.83950348 -24.36607361 5.04960632 C-23.70003585 4.38432261 -23.03399809 3.71903891 -22.34777737 3.03359509 C-15.40660859 -3.04922917 -8.28527487 -4.37712635 0 0 Z " fill="#FCB339" transform="translate(118.3125,389.75)"/>
<path d="M0 0 C8.22195592 7.25466699 13.3018875 17.22380244 14.28125 28.1328125 C14.6932973 42.65747994 10.29905145 54.16214266 0.41796875 64.671875 C-9.44216604 74.16563968 -20.39008656 77.65831118 -33.86621094 77.54077148 C-45.00033833 77.10905353 -55.12672364 73.07672019 -63 65 C-63 64.34 -63 63.68 -63 63 C-61.69151306 61.71028137 -61.69151306 61.71028137 -59.78491211 60.15161133 C-53.68205432 54.9568129 -48.09836651 49.2424843 -42.44140625 43.57421875 C-41.2446882 42.37817547 -40.04782184 41.18228057 -38.85081482 39.98652649 C-36.35895937 37.49613645 -33.86889957 35.00396881 -31.38012695 32.51049805 C-28.18681023 29.31144734 -24.98897432 26.11695746 -21.78981113 22.92375469 C-19.32511436 20.46266317 -16.86279391 17.9992053 -14.40119743 15.5350132 C-13.22214118 14.3552895 -12.04234063 13.17630919 -10.8617878 11.99808311 C-9.21996561 10.35879085 -7.58136639 8.71634447 -5.94360352 7.07299805 C-5.01064957 6.1392485 -4.07769562 5.20549896 -3.11647034 4.24345398 C-0.9741461 2.18868791 -0.9741461 2.18868791 0 0 Z " fill="#058FFA" transform="translate(382,129)"/>
<path d="M0 0 C4.40101653 2.28200857 6.95038201 4.46926549 9 9 C10.43462328 13.96600368 9.80253063 18.21947447 8 23 C6.33014365 25.21204469 4.84405703 26.94250693 2.87939453 28.83349609 C2.35883484 29.35814453 1.83827515 29.88279297 1.30194092 30.42333984 C-0.40697719 32.13823044 -2.13628229 33.83076594 -3.8671875 35.5234375 C-5.0666065 36.7167342 -6.26484134 37.91122221 -7.46194458 39.10684204 C-9.96643986 41.60215898 -12.48039529 44.08736651 -15.00244141 46.56494141 C-18.23309708 49.73891176 -21.44603238 52.93009367 -24.65292168 56.12805748 C-27.12435296 58.59117304 -29.60139474 61.04857573 -32.0805397 63.50392532 C-33.26716727 64.67917202 -34.45287198 65.85535127 -35.63763046 67.03248215 C-37.29349442 68.67458164 -38.95591673 70.30972437 -40.62060547 71.94287109 C-41.10802216 72.42805206 -41.59543884 72.91323303 -42.09762573 73.41311646 C-46.17546378 77.38904449 -49.15641944 79.28592554 -54.875 79.375 C-59.68401017 79.26184682 -62.35414962 78.29862653 -66 75 C-70.1771257 70.49310122 -70.46363524 66.66373422 -70.53125 60.78125 C-69.4249452 54.98941899 -65.10128318 50.84659007 -61.06713867 46.77661133 C-60.59012009 46.29287552 -60.1131015 45.80913971 -59.62162781 45.31074524 C-58.05895985 43.72923482 -56.48900517 42.15522598 -54.91796875 40.58203125 C-53.81929799 39.47692511 -52.72077441 38.37167263 -51.62239075 37.26628113 C-49.32528919 34.95724274 -47.02413037 32.65233643 -44.72045898 30.34985352 C-41.77826173 27.40785973 -38.85008052 24.45233134 -35.92524242 21.49309254 C-33.66292183 19.20847526 -31.39150852 16.9330663 -29.11748695 14.66010094 C-28.03426223 13.57452617 -26.95425555 12.48572988 -25.87764549 11.39359474 C-24.36817319 9.86439804 -22.84639292 8.34854484 -21.32104492 6.83520508 C-20.46040939 5.97171951 -19.59977386 5.10823395 -18.71305847 4.21858215 C-12.86681782 -0.562135 -7.30502364 -1.95598994 0 0 Z " fill="#F57920" transform="translate(160,433)"/>
<path d="M0 0 C3.25243169 3.43828493 5.07544778 6.73978108 5.28515625 11.5546875 C4.74644566 19.35942148 0.63444167 24.11439 -4.79296875 29.55175781 C-5.51572495 30.27977097 -5.51572495 30.27977097 -6.25308228 31.02249146 C-7.8304313 32.60856812 -9.41489318 34.18730428 -11 35.765625 C-12.1060051 36.87297889 -13.2117133 37.9806294 -14.31713867 39.08856201 C-16.62713598 41.40149805 -18.94068707 43.71080271 -21.25683594 46.01757812 C-24.22270686 48.97202851 -27.17947214 51.93540369 -30.13365173 54.90153885 C-32.41199895 57.18711565 -34.6950913 59.46790447 -36.97964478 61.74727631 C-38.0719374 62.83823687 -39.16275209 63.93067929 -40.25204468 65.02463531 C-41.77391596 66.55159277 -43.30206367 68.07198094 -44.83203125 69.59082031 C-46.13297729 70.88937958 -46.13297729 70.88937958 -47.46020508 72.21417236 C-52.18823951 76.43174101 -55.92788202 76.75694592 -62.12109375 76.625 C-67.29080222 76.02474357 -69.82220445 73.40703719 -73.1875 69.6875 C-75.33657991 65.22402634 -75.82208976 61.18228591 -74.8125 56.3125 C-72.19549328 52.00597781 -69.24148187 48.47332697 -65.71191406 44.88964844 C-65.21699463 44.38479919 -64.7220752 43.87994995 -64.2121582 43.35980225 C-62.58963545 41.70830924 -60.95963757 40.06448473 -59.328125 38.421875 C-58.76808525 37.8561805 -58.2080455 37.29048599 -57.63103485 36.70764923 C-54.67057024 33.71731914 -51.70448898 30.73270129 -48.73339844 27.75292969 C-45.67563379 24.6841776 -42.63688084 21.59729868 -39.60217667 18.50576401 C-37.25472661 16.12098 -34.8938827 13.74980208 -32.52922821 11.38208771 C-31.40316984 10.24999924 -30.28208746 9.11293749 -29.1662674 7.97075653 C-27.60165383 6.37182832 -26.01896076 4.79313176 -24.43066406 3.21777344 C-23.53671936 2.31653748 -22.64277466 1.41530151 -21.72174072 0.48675537 C-14.64563192 -4.80165801 -7.3332589 -4.39995534 0 0 Z " fill="#FDB339" transform="translate(74.8125,345.6875)"/>
<path d="M0 0 C2.54587021 5.70274927 3.95940434 9.92870194 2 16 C-1.97909669 22.57072399 -7.64072961 27.92586253 -13.04711914 33.3059082 C-13.93729233 34.19958603 -14.82746552 35.09326385 -15.74461365 36.01402283 C-18.1655016 38.44395612 -20.59258516 40.86760787 -23.0211823 43.28983331 C-25.57096075 45.83451547 -28.11581894 48.38411099 -30.66148376 50.9329071 C-34.93227513 55.20732561 -39.20724055 59.47753534 -43.48461914 63.74536133 C-48.42355459 68.67339371 -53.35521595 73.60861764 -58.28320223 78.54759723 C-62.52596623 82.79944491 -66.77262477 87.04737325 -71.02254766 91.29206532 C-73.55601181 93.82241841 -76.08812171 96.35408698 -78.61671638 98.88930702 C-81.43285312 101.71230832 -84.25713681 104.52707047 -87.08227539 107.34106445 C-87.91514069 108.17797821 -88.74800598 109.01489197 -89.60610962 109.87716675 C-90.37841415 110.64383163 -91.15071869 111.41049652 -91.94642639 112.20039368 C-92.61246415 112.86567739 -93.27850191 113.53096109 -93.96472263 114.21640491 C-98.17053192 117.90212407 -101.3920972 119.43034706 -107 119.4375 C-108.010625 119.45683594 -109.02125 119.47617187 -110.0625 119.49609375 C-113.67356828 118.88624578 -115.24912278 117.33830362 -118 115 C-103.06677836 99.99677489 -88.12503279 85.00208715 -73.17302227 70.01758575 C-66.23113637 63.06021449 -59.29209388 56.10005061 -52.35961914 49.13330078 C-46.31903215 43.06286252 -40.27323452 36.99767167 -34.22105533 30.93878984 C-31.01505982 27.72887483 -27.81178015 24.51634917 -24.6147213 21.29753113 C-21.60808422 18.27059639 -18.5945526 15.25070516 -15.57548904 12.236166 C-14.4662834 11.12613214 -13.35966398 10.01350728 -12.2557888 8.89817238 C-10.75286408 7.38040879 -9.24106924 5.87208415 -7.72660828 4.36584473 C-6.88132411 3.51779518 -6.03603994 2.66974564 -5.16514111 1.79599762 C-3 0 -3 0 0 0 Z " fill="#F57B22" transform="translate(122,393)"/>
</svg>
