<svg width="255" height="44" viewBox="0 0 255 44" fill="none" xmlns="http://www.w3.org/2000/svg">
<g id="Component 59">
<path id="Vector" d="M115.297 18.7947C115.288 23.6442 115.278 28.493 115.269 33.3413C115.269 34.7596 115.258 34.7704 113.816 34.7704C112.775 34.7704 111.733 34.7561 110.692 34.7704C110.025 34.7811 109.725 34.5185 109.725 33.82C109.737 26.0242 109.737 18.2296 109.725 10.4362C109.725 9.70202 110.011 9.43227 110.733 9.45013C112.101 9.48229 113.471 9.48943 114.842 9.45013C115.556 9.42691 115.985 9.69129 116.353 10.2951C118.152 13.2391 119.985 16.1634 121.81 19.0913C122.425 20.0756 122.437 20.0738 123.052 19.0913C124.86 16.1866 126.685 13.2927 128.454 10.3648C128.863 9.69132 129.327 9.41794 130.106 9.45188C131.357 9.50547 132.607 9.45194 133.858 9.46801C135.042 9.46801 135.071 9.49832 135.072 10.6577C135.072 15.0891 135.072 19.5218 135.072 23.9556C135.072 27.1979 135.049 30.442 135.088 33.6843C135.088 34.5061 134.812 34.8115 134.017 34.7865C132.916 34.7508 131.814 34.7418 130.715 34.7865C129.837 34.8258 129.519 34.5185 129.527 33.6075C129.565 28.9968 129.544 24.3861 129.544 19.7737V18.6751C129.008 18.918 128.886 19.3056 128.681 19.6147C126.825 22.4169 124.975 25.2233 123.129 28.0339C122.371 29.1808 122.355 29.1701 121.616 28.0554C119.56 24.9589 117.499 21.8625 115.431 18.7661L115.363 18.7322L115.297 18.7947Z" fill="black"/>
<path id="Vector_2" d="M140.401 22.0851C140.401 18.3075 140.401 14.5292 140.401 10.7504C140.401 9.49996 140.432 9.47139 141.625 9.46961C145.226 9.46961 148.826 9.46961 152.425 9.46961C154.129 9.44786 155.812 9.84018 157.331 10.6129C161.345 12.6922 161.44 18.5963 158.158 20.9168C157.349 21.4867 157.365 21.5456 158.253 21.9708C160.979 23.2748 162.102 25.4632 161.865 28.4215C161.638 31.2368 160.055 32.9785 157.495 33.9503C155.912 34.5505 154.262 34.7327 152.586 34.7363C148.956 34.7446 145.324 34.7446 141.689 34.7363C140.439 34.7363 140.403 34.6791 140.392 33.4144C140.392 33.3536 140.392 33.2947 140.392 33.2357C140.397 29.5165 140.4 25.7996 140.401 22.0851ZM149.808 29.847C150.702 29.847 151.595 29.847 152.488 29.847C153.233 29.8582 153.974 29.7303 154.673 29.47C155.784 29.0288 156.329 28.2321 156.322 27.0745C156.322 25.958 155.786 25.1827 154.714 24.7379C154.107 24.4876 153.457 24.3554 152.801 24.3484C150.748 24.3217 148.692 24.336 146.646 24.3163C146.091 24.3163 145.816 24.5289 145.819 25.0988C145.819 26.4064 145.83 27.714 145.819 29.0288C145.819 29.6398 146.091 29.8756 146.689 29.863C147.727 29.8273 148.767 29.8434 149.808 29.8434V29.847ZM149.072 19.6646V19.5842C150.08 19.5842 151.087 19.6003 152.095 19.5753C152.421 19.5503 152.741 19.4799 153.047 19.3662C154.424 18.9232 155.053 17.971 154.885 16.6116C154.748 15.4969 153.933 14.718 152.563 14.5001C150.559 14.1803 148.535 14.384 146.52 14.3554C146.046 14.3554 145.819 14.6252 145.819 15.0878C145.819 16.3633 145.819 17.6388 145.819 18.9143C145.819 19.4234 146.05 19.6753 146.577 19.6682C147.409 19.6521 148.242 19.6628 149.072 19.6628V19.6646Z" fill="black"/>
<path id="Vector_3" d="M237.952 19.1663V22.9927C237.952 26.5333 237.926 30.0739 237.97 33.6146C237.983 34.5328 237.647 34.8239 236.777 34.7882C235.648 34.74 234.515 34.7614 233.383 34.7775C232.704 34.7882 232.433 34.497 232.434 33.8092C232.446 26.0146 232.446 18.22 232.434 10.4254C232.434 9.67515 232.754 9.43579 233.46 9.45723C234.499 9.48938 235.544 9.50903 236.584 9.45723C237.363 9.41257 237.835 9.73415 238.292 10.3344C241.679 14.8218 245.082 19.2979 248.501 23.7626C248.712 24.0395 248.941 24.2986 249.216 24.6558C249.443 24.2182 249.373 23.8627 249.373 23.525C249.373 19.2377 249.373 14.9533 249.373 10.6719C249.373 9.509 249.401 9.48583 250.584 9.47869C251.656 9.47869 252.728 9.51797 253.8 9.46438C254.655 9.42151 254.929 9.74307 254.925 10.5952C254.895 15.9794 254.911 21.3653 254.911 26.7494C254.911 29.0717 254.879 31.394 254.927 33.7164C254.943 34.5595 254.611 34.7882 253.83 34.8061C250.232 34.8775 250.234 34.89 248.058 32.03C244.94 27.9356 241.821 23.8418 238.699 19.7486C238.521 19.5217 238.333 19.3091 238.149 19.0894L237.952 19.1663Z" fill="black"/>
<path id="Vector_4" d="M166.479 22.0391C166.479 18.2627 166.479 14.4856 166.479 10.708C166.479 9.50218 166.516 9.46824 167.744 9.45752C171.255 9.45752 174.768 9.45752 178.283 9.45752C180.218 9.45752 182.085 9.79155 183.775 10.7723C188.859 13.7145 188.916 21.7854 183.884 24.8847C183.612 25.0668 183.324 25.2247 183.024 25.3564C182.374 25.6118 182.335 25.9637 182.717 26.5104C183.944 28.2664 185.143 30.0403 186.352 31.807C186.872 32.568 187.383 33.3362 187.91 34.0936C188.21 34.5224 188.125 34.7635 187.59 34.7617C185.804 34.7617 184.018 34.7313 182.231 34.717C181.736 34.717 181.517 34.3598 181.279 34.0025C179.825 31.8267 178.351 29.6633 176.924 27.4679C176.54 26.8784 176.1 26.6014 175.391 26.6425C174.591 26.689 173.783 26.6747 172.983 26.6425C172.301 26.6193 172.027 26.8945 172.036 27.5894C172.065 29.5812 172.015 31.5748 172.058 33.5666C172.076 34.3973 171.818 34.7688 170.947 34.7331C169.818 34.6849 168.685 34.6938 167.553 34.7331C166.743 34.7581 166.461 34.4295 166.466 33.6256C166.495 29.767 166.481 25.9048 166.479 22.0391ZM172.047 18.0322C172.047 18.9825 172.056 19.9347 172.047 20.8904C172.047 21.3924 172.226 21.6889 172.762 21.6889C174.753 21.6889 176.752 21.8354 178.735 21.6067C180.613 21.3888 181.819 20.0419 181.86 18.2894C181.913 16.0439 180.634 14.7023 178.121 14.5505C176.372 14.4451 174.612 14.5237 172.856 14.4916C172.224 14.4809 172.022 14.7702 172.036 15.3579C172.063 16.2458 172.047 17.139 172.047 18.0322Z" fill="black"/>
<path id="Vector_5" d="M21.7762 43.9543H20.3471C18.918 43.9543 18.9073 43.9544 19.002 42.4931C19.2425 38.4197 20.4793 34.4676 22.6038 30.9838C24.7284 27.5 27.6756 24.5911 31.1869 22.5124C32.0801 21.9764 32.0801 21.9336 31.1869 21.3816C23.8937 16.8489 19.8392 10.3077 19.0234 1.75806C18.8573 0.00204027 18.868 0.000281846 20.5972 0.000281846C21.669 0.000281846 22.7409 0.014573 23.8127 0.000281846C24.3915 -0.0086501 24.6327 0.193226 24.6952 0.818462C25.5116 8.84649 29.4898 14.604 37.0105 17.7623C38.9756 18.5876 41.0585 18.936 43.1682 19.1235C43.7166 19.1718 43.9828 19.3325 43.9757 19.9131C43.956 21.2815 43.9524 22.6499 43.9757 24.0218C43.9882 24.6435 43.7184 24.8221 43.1253 24.8614C33.4788 25.517 26.4405 31.9409 24.9042 41.4624C24.8577 41.7536 24.7916 42.0447 24.7255 42.3323C24.6112 42.8182 24.9042 43.4453 24.4933 43.7811C24.0163 44.1705 23.3464 43.9115 22.7605 43.9597C22.4318 43.9723 22.1031 43.9543 21.7762 43.9543Z" fill="black"/>
<path id="Vector_6" d="M103.007 34.8454C102.233 34.8454 101.458 34.815 100.685 34.8454C100.052 34.8793 99.711 34.6452 99.502 34.0361C98.9661 32.4891 98.3516 30.9724 97.8282 29.4236C97.5852 28.7091 97.2208 28.5429 96.4955 28.6984C94.5466 29.1164 92.5869 29.4808 90.6237 29.8256C88.6318 30.1739 87.2938 31.1993 86.6329 33.1786C85.9826 35.1258 86.2756 34.8096 84.2766 34.8364C83.1458 34.8507 82.0151 34.8364 80.8825 34.8364C79.6124 34.8364 79.5891 34.8024 80.0786 33.5859C82.3235 28.0136 84.5708 22.4418 86.8204 16.8707C87.7136 14.6645 88.6229 12.4672 89.4804 10.2467C89.7394 9.57327 90.0824 9.25885 90.8452 9.28743C92.36 9.34281 93.882 9.32142 95.3969 9.29641C95.9757 9.2857 96.3258 9.46074 96.5509 10.0306C99.7164 17.9896 102.894 25.9438 106.085 33.8932C106.378 34.622 106.162 34.8704 105.413 34.8418C104.615 34.8221 103.809 34.8454 103.007 34.8454ZM93.1335 16.7028L92.862 16.7277C91.8509 19.4145 90.8386 22.1012 89.8251 24.7879C89.5482 25.5311 90.0842 25.4328 90.4914 25.3578C91.9795 25.088 93.4586 24.7629 94.9574 24.5164C95.747 24.386 95.8506 24.0251 95.5934 23.3445C95.1021 22.0726 94.652 20.7847 94.1786 19.5056C93.8338 18.5695 93.4819 17.6371 93.1335 16.7028Z" fill="black"/>
<path id="Vector_7" d="M216.169 9.31229C217.009 9.41232 218.211 8.92462 219.027 9.52128C219.804 10.0858 219.906 11.2969 220.278 12.2312C223.136 19.3541 225.983 26.4807 228.819 33.6108C229.297 34.8112 229.276 34.8434 227.986 34.8452C226.5 34.8452 225.01 34.8201 223.52 34.8576C222.875 34.8719 222.554 34.62 222.348 34.0252C221.812 32.4799 221.205 30.9597 220.673 29.4127C220.448 28.7536 220.121 28.5428 219.422 28.6982C217.384 29.1287 215.333 29.4931 213.288 29.8825C211.446 30.2398 210.194 31.2134 209.551 33.0462C208.8 35.1899 209.229 34.8183 206.941 34.8505C205.81 34.8666 204.679 34.8612 203.546 34.8505C202.555 34.8398 202.475 34.7379 202.853 33.8162C205.286 27.7746 207.723 21.7342 210.163 15.695C210.878 13.9087 211.646 12.1223 212.307 10.3091C212.593 9.5356 213.021 9.23725 213.827 9.30513C214.547 9.3623 215.265 9.31229 216.169 9.31229ZM216.017 16.7205L215.733 16.6954C214.694 19.4626 213.648 22.2332 212.623 24.9986C212.478 25.3862 212.759 25.4648 213.071 25.4058C214.764 25.0879 216.454 24.7651 218.143 24.4376C218.524 24.3626 218.718 24.1286 218.572 23.7231C217.724 21.3889 216.872 19.0564 216.017 16.7258V16.7205Z" fill="black"/>
<path id="Vector_8" d="M53.9758 22.1553C53.9758 14.2595 60.2282 8.48762 68.133 9.02711C71.1984 9.23612 73.9548 10.1204 76.3253 12.1318C76.9756 12.6838 77.131 13.1126 76.4629 13.7789C75.6925 14.5651 74.9684 15.3954 74.2942 16.2656C73.8101 16.8765 73.4314 16.9801 72.7972 16.4156C71.6222 15.3469 70.173 14.6263 68.6117 14.3345C64.1672 13.5395 60.2711 16.5603 59.8816 21.1049C59.7548 22.5768 59.8816 24.0202 60.4622 25.3922C62.195 29.5205 66.6699 31.1873 70.7089 29.2151C71.5951 28.7872 72.4141 28.2323 73.1402 27.568C73.6297 27.1161 73.978 27.1858 74.405 27.6485C75.1517 28.4577 75.918 29.2562 76.7273 29.9993C77.2632 30.4906 77.1792 30.8318 76.7058 31.3141C73.6904 34.3832 69.9676 35.4943 65.7946 35.1298C58.833 34.5278 53.9794 29.1365 53.9758 22.1553Z" fill="black"/>
<path id="Vector_9" d="M0.00719697 21.9599C0.00719697 21.4847 0.00719697 21.0078 0.00719697 20.5308C0.00719697 19.1195 0.00720262 19.1017 1.52027 18.9748C3.95792 18.7689 6.33183 18.0886 8.50863 16.9723C11.4387 15.4771 13.9364 13.2555 15.7632 10.5199C15.9204 10.2876 15.999 9.87504 16.3455 9.92506C16.6153 9.96258 16.6367 10.3412 16.7349 10.5824C17.2905 11.9651 17.8872 13.3335 18.7 14.5786C19.2073 15.3539 19.0715 15.8666 18.4677 16.5097C16.7177 18.4207 14.703 20.0714 12.4851 21.4115C11.6205 21.9224 11.6205 21.9563 12.4726 22.4655C14.8002 23.857 16.8974 25.6017 18.6893 27.6371C19.1519 28.1587 19.1412 28.5713 18.7911 29.1341C18.0019 30.4299 17.3259 31.7915 16.7707 33.2035C16.6635 33.4679 16.6474 33.877 16.3276 33.9181C16.0079 33.9591 15.8971 33.5608 15.7381 33.3268C12.8799 29.1841 9.02667 26.4848 4.12661 25.3094C3.08719 25.0489 2.02314 24.8992 0.952204 24.8628C0.189416 24.8449 -0.0320962 24.5163 0.00363161 23.825C0.0340002 23.2104 0.00898336 22.5851 0.00719697 21.9599Z" fill="black"/>
<path id="Vector_10" d="M198.63 22.1692C198.63 25.9468 198.63 29.7244 198.63 33.502C198.63 34.6471 198.55 34.7256 197.423 34.7364C196.351 34.7453 195.279 34.6953 194.207 34.7507C193.314 34.7971 192.975 34.4702 193 33.5735C193.044 31.9389 193.01 30.3025 193.01 28.6662C193.01 22.7485 193.01 16.8296 193.01 10.9095C193.01 9.48041 193.028 9.46793 194.452 9.46436C195.374 9.46436 196.295 9.46436 197.217 9.46436C198.621 9.46436 198.627 9.46434 198.627 10.8381C198.631 14.6145 198.633 18.3916 198.63 22.1692Z" fill="black"/>
<path id="Vector_11" d="M115.297 18.7945L115.351 18.7427L115.419 18.7766C115.379 18.787 115.338 18.7931 115.297 18.7945Z" fill="black"/>
</g>
</svg>
