<svg width="246" height="44" viewBox="0 0 246 44" fill="none" xmlns="http://www.w3.org/2000/svg">
<g id="Component 56">
<path id="Vector" d="M127.958 33.8593H119.546V32.3617C119.546 28.5137 119.561 24.6599 119.546 20.8148C119.536 20.0582 119.459 19.3041 119.315 18.5612C119.03 16.9895 118.214 15.8057 116.52 15.5661C114.78 15.3208 113.097 15.8514 112.412 17.4402C111.626 19.2488 111.155 21.1781 111.017 23.1452C110.803 26.6453 110.957 30.1682 110.957 33.808H102.508C102.508 32.8552 102.508 31.9167 102.508 30.9782C102.485 27.1787 102.528 23.3763 102.411 19.5682C102.334 17.0352 101.085 15.5747 99.0995 15.4919C97.4137 15.4263 95.9247 16.0938 95.2344 17.657C94.5919 19.0193 94.2051 20.488 94.0934 21.99C93.9393 25.8751 94.042 29.7745 94.042 33.7937H85.6785V9.11376H93.1635V13.1929L93.4487 13.4296C95.4169 10.1606 98.3322 8.61457 101.989 8.46338C105.717 8.3122 108.644 9.67568 110.393 13.2242C113.408 8.77429 117.57 7.88715 122.373 8.79139C124.972 9.28203 126.544 10.9393 127.322 13.3554C127.684 14.3871 127.89 15.4666 127.936 16.5588C127.99 22.2809 127.958 27.9831 127.958 33.8593Z" fill="black"/>
<path id="Vector_2" d="M141.984 43.9998H133.567V9.03087C135.937 9.03087 138.29 9.00232 140.638 9.07649C140.875 9.07649 141.251 9.70974 141.283 10.072C141.371 11.0961 141.314 12.1344 141.46 13.2555C142.957 10.905 145.037 9.54719 147.652 8.83407C152.171 7.62175 156.538 9.19345 159.105 13.0757C162.599 18.3586 161.938 26.7678 158.044 31.1863C154.427 35.2968 145.778 36.0356 141.984 30.7499V43.9998ZM152.904 21.5049C152.502 20.1385 152.308 18.738 151.697 17.5542C149.92 14.0856 145.088 13.9999 143.077 17.3459C141.502 19.9702 141.534 22.6915 142.951 25.3329C143.856 27.0216 145.328 28.0315 147.336 28.0115C149.253 27.9915 150.779 27.1415 151.614 25.4442C152.214 24.2519 152.47 22.8827 152.904 21.5049Z" fill="black"/>
<path id="Vector_3" d="M29.0105 1.71444L28.3259 8.42919C26.4005 7.8159 24.6177 7.07144 22.7521 6.69491C19.1893 5.97608 15.735 6.30123 12.7969 8.72586C9.37386 11.5498 8.1159 16.7386 9.68193 21.2113C10.3881 23.2232 11.7127 24.9601 13.466 26.1734C15.2193 27.3867 17.3116 28.0142 19.4432 27.9661C21.8279 27.9347 24.2098 27.3442 26.5888 26.9677C27.2786 26.8208 27.9603 26.6379 28.6312 26.42C28.7709 28.5223 28.9392 30.4934 28.9963 32.4673C28.9963 32.7525 28.5484 33.2774 28.2232 33.3602C21.9163 34.9861 15.638 35.1458 9.53931 32.5044C3.66314 29.9714 0.616655 25.3218 0.0889402 19.0434C-0.307559 14.3168 0.573868 9.87257 3.70022 6.09015C6.51565 2.6814 10.2867 1.08119 14.5198 0.3595C19.3862 -0.45917 24.1384 0.174087 29.0105 1.71444Z" fill="black"/>
<path id="Vector_4" d="M67.4053 34.5843C62.228 34.3276 58.166 33.2779 55.1138 29.8207C50.0848 24.1156 50.855 11.4818 62.3849 8.9488C66.7178 7.99606 71.0052 8.22997 74.9559 10.4492C79.7681 13.1534 81.5167 17.5805 81.1173 22.8206C80.6894 28.3117 77.5231 31.8916 72.3572 33.5974C70.5431 34.1993 68.5805 34.3618 67.4053 34.5843ZM60.7618 21.1775C61.067 22.6038 61.2097 23.8817 61.6176 25.0712C62.4334 27.3789 64.3645 28.6283 66.7521 28.5969C67.8521 28.5895 68.9229 28.2417 69.8172 27.6012C70.7116 26.9607 71.3856 26.0589 71.7468 25.0199C72.6678 22.5947 72.6002 19.905 71.5585 17.5292C70.7028 15.5067 69.0113 14.4227 66.8833 14.3514C64.664 14.2773 62.7357 15.1217 61.8343 17.3381C61.3551 18.5903 61.1298 19.9567 60.7732 21.189L60.7618 21.1775Z" fill="black"/>
<path id="Vector_5" d="M201.645 34.6041C195.885 34.3189 191.638 33.252 188.571 29.4696C183.982 23.8074 184.758 11.8554 195.466 9.13696C200.566 7.84192 205.478 8.19277 209.903 11.2678C213.822 13.9891 215.18 18.0111 214.854 22.5837C214.501 27.5299 212.116 31.2639 207.392 33.0952C205.219 33.9367 202.857 34.296 201.645 34.6041ZM194.562 21.1032C194.847 22.481 194.958 23.719 195.329 24.8771C196.091 27.2703 198.033 28.6168 200.464 28.6082C201.59 28.6191 202.691 28.2731 203.609 27.6198C204.527 26.9664 205.214 26.0393 205.572 24.9712C206.389 22.6669 206.365 20.1481 205.504 17.8599C204.682 15.6635 202.962 14.4369 200.626 14.3484C198.344 14.2572 196.427 15.3839 195.546 17.5347C195.069 18.6957 194.864 19.9708 194.562 21.1032Z" fill="black"/>
<path id="Vector_6" d="M227.822 33.848H219.404C219.373 33.3574 219.313 32.8611 219.31 32.3619C219.31 25.0908 219.341 17.8141 219.276 10.5516C219.276 9.24228 219.704 8.93421 220.91 8.98556C222.89 9.07398 224.878 9.01118 227.003 9.01118V13.25C228.375 11.3874 229.984 10.0011 232.072 9.20521C239.144 6.50958 245.003 10.1836 245.741 17.7627C245.779 18.1393 245.776 18.5215 245.776 18.9037C245.776 23.8386 245.776 28.7762 245.776 33.8195H237.332C237.332 33.249 237.332 32.7042 237.332 32.1536C237.258 27.9747 237.304 23.7929 237.047 19.6254C236.896 17.0267 235.538 15.6832 233.53 15.4607C232.431 15.342 231.324 15.6107 230.402 16.2205C229.48 16.8304 228.799 17.743 228.478 18.801C228.082 20.0161 227.867 21.2829 227.839 22.5606C227.771 26.2717 227.822 29.9772 227.822 33.848Z" fill="black"/>
<path id="Vector_7" d="M163.561 14.8816C163.561 13.0275 163.509 11.4186 163.609 9.81838C163.629 9.53313 164.254 9.07674 164.625 9.04822C165.891 8.95123 167.166 9.0111 168.618 9.0111C168.618 7.46219 168.675 6.05025 168.595 4.64681C168.544 3.7169 168.88 3.31753 169.762 3.06651C172.115 2.39047 174.44 1.61169 176.97 0.812988V8.95406H182.96V14.8816C181.48 14.8816 179.98 14.9329 178.488 14.8645C177.418 14.816 176.962 15.087 177.002 16.2907C177.096 19.0405 177.002 21.7989 177.059 24.563C177.116 28.257 178.502 29.3838 182.193 28.8133C182.421 28.7762 182.652 28.7562 183.132 28.6963V34.0761C179.777 34.6466 176.24 35.026 172.797 33.7709C169.756 32.6613 168.729 30.0627 168.635 27.0875C168.524 23.5304 168.55 19.9562 168.612 16.402C168.635 15.1868 168.204 14.8074 167.052 14.8873C165.96 14.9415 164.87 14.8816 163.561 14.8816Z" fill="black"/>
<path id="Vector_8" d="M41.3476 33.8594C40.817 33.8936 40.4918 33.9335 40.1695 33.9335C37.8019 33.9335 35.4315 33.9335 32.9612 33.9335V9.03397C35.2974 9.03397 37.6536 9.00827 40.004 9.08244C40.2208 9.08244 40.5603 9.74997 40.5916 10.1265C40.6744 11.1334 40.6202 12.1518 40.7799 13.2471C43.0391 9.09388 46.4136 7.75318 51.0176 8.80575C50.8864 11.0649 50.7551 13.3099 50.6182 15.6689C49.985 15.6261 49.4772 15.6176 48.9666 15.552C44.9731 15.0414 41.9694 17.1779 41.59 21.1999C41.2705 24.5887 41.4075 28.0203 41.3476 31.4347C41.3362 32.1935 41.3476 32.9494 41.3476 33.8594Z" fill="black"/>
</g>
</svg>
