<svg width="913" height="67" viewBox="0 0 913 67" fill="none" xmlns="http://www.w3.org/2000/svg">
<path d="M15.24 66H0.84V1.68H15.24V27.216H48.84V1.68H63.24V66H48.84V40.176H15.24V66ZM82.773 66H66.645L94.773 1.68H115.317L143.637 66H127.125L121.077 51.792H88.917L82.773 66ZM100.533 24.816L94.485 38.832H115.509L109.461 24.816L105.525 14.832H104.469L100.533 24.816ZM179.924 66.96C158.708 66.96 145.556 53.904 145.556 33.84C145.556 13.776 158.708 0.719999 179.924 0.719999C199.892 0.719999 212.756 10.704 212.756 27.024V28.464H196.724V27.024C196.724 18.576 191.924 14.544 180.212 14.544C166.1 14.544 160.82 19.536 160.82 33.84C160.82 48.144 166.1 53.136 180.212 53.136C191.924 53.136 196.724 49.104 196.724 40.656V39.216H212.756V40.656C212.756 56.976 199.988 66.96 179.924 66.96ZM233.396 66H218.996V1.68H233.396V27.216H249.428L266.516 1.68H283.796L261.428 33.36L283.508 66H266.228L249.62 41.232H233.396V66ZM299.242 66H283.114L311.242 1.68H331.786L360.106 66H343.594L337.546 51.792H305.386L299.242 66ZM317.002 24.816L310.954 38.832H331.978L325.93 24.816L321.994 14.832H320.938L317.002 24.816ZM399.273 66H384.873V14.64H360.969V1.68H423.177V14.64H399.273V66ZM442.74 66H428.34V1.68H442.74V27.216H476.34V1.68H490.74V66H476.34V40.176H442.74V66ZM531.585 66.96C510.273 66.96 497.025 53.904 497.025 33.84C497.025 13.776 510.273 0.719999 531.585 0.719999C553.377 0.719999 566.529 13.776 566.529 33.84C566.529 53.904 553.377 66.96 531.585 66.96ZM531.585 53.136C545.697 53.136 551.169 48.144 551.169 33.84C551.169 19.536 545.697 14.544 531.585 14.544C517.473 14.544 512.289 19.536 512.289 33.84C512.289 48.144 517.473 53.136 531.585 53.136ZM587.209 66H572.809V1.68H588.169L611.209 32.112L620.041 45.648H621.097L620.425 32.688V1.68H634.825V66H619.465L595.753 35.28L587.593 23.184H586.633L587.209 34.992V66ZM712.766 66H655.646V56.784C655.646 45.456 660.542 39.6 674.078 35.088L690.59 29.712C696.35 27.696 698.462 25.776 698.462 21.552C698.462 16.656 695.774 13.872 685.214 13.872C673.406 13.872 669.854 17.424 669.854 24.528V25.776H655.742V24.528C655.742 12.048 664.286 0.719999 685.694 0.719999C705.086 0.719999 712.958 9.552 712.958 21.744C712.958 33.168 705.47 38.832 694.046 42L680.03 45.84C673.79 47.76 670.814 49.584 670.814 54.672L687.614 53.04H712.766V66ZM749.779 66.96C729.043 66.96 717.619 53.904 717.619 33.84C717.619 13.872 729.043 0.719999 749.779 0.719999C770.419 0.719999 781.939 13.872 781.939 33.84C781.939 53.904 770.419 66.96 749.779 66.96ZM749.779 52.944C761.971 52.944 766.483 47.664 766.483 33.84C766.483 20.016 761.971 14.736 749.779 14.736C737.491 14.736 733.075 20.016 733.075 33.84C733.075 47.664 737.491 52.944 749.779 52.944ZM843.547 66H786.427V56.784C786.427 45.456 791.323 39.6 804.859 35.088L821.371 29.712C827.131 27.696 829.243 25.776 829.243 21.552C829.243 16.656 826.555 13.872 815.995 13.872C804.187 13.872 800.635 17.424 800.635 24.528V25.776H786.523V24.528C786.523 12.048 795.067 0.719999 816.475 0.719999C835.867 0.719999 843.739 9.552 843.739 21.744C843.739 33.168 836.251 38.832 824.827 42L810.811 45.84C804.571 47.76 801.595 49.584 801.595 54.672L818.395 53.04H843.547V66ZM902.64 66H888.24V53.712H847.44V43.92L885.936 1.68H902.64V40.752H912.432V53.712H902.64V66ZM867.504 40.752H888.24V18.288H887.184L867.504 39.696V40.752Z" fill="url(#paint0_linear_53_47)"/>
<defs>
<linearGradient id="paint0_linear_53_47" x1="-3" y1="35" x2="914" y2="35" gradientUnits="userSpaceOnUse">
<stop stop-color="#E16028"/>
<stop offset="1" stop-color="#FDFF96"/>
</linearGradient>
</defs>
</svg>
