<svg width="514" height="267" viewBox="0 0 514 267" fill="none" xmlns="http://www.w3.org/2000/svg">
<path fill-rule="evenodd" clip-rule="evenodd" d="M514 35.9999H0V267H443.907L514 225.953V35.9999Z" fill="black"/>
<path d="M27.9796 80.9999V64.6799H34.0516C37.9636 64.6799 40.3876 66.6959 40.3876 70.0319C40.3876 73.4639 37.9396 75.4319 34.0996 75.4319H31.2196V80.9999H27.9796ZM34.0036 67.2479H31.2196V72.8639H33.9316C35.9956 72.8639 37.0756 71.7599 37.0756 70.0559C37.0756 68.3519 35.9716 67.2479 34.0036 67.2479ZM44.2555 80.9999V64.6799H50.6395C54.3115 64.6799 56.5915 66.5279 56.5915 69.5039C56.5915 71.3279 55.7995 72.5999 54.4075 73.3439C55.2475 73.8719 55.7515 74.7359 56.0875 76.0799L57.3115 80.9999H53.9515L52.9915 76.6799C52.6075 74.9999 51.9835 74.6639 50.3755 74.6639H47.4955V80.9999H44.2555ZM50.5675 67.2479H47.4955V72.1199H50.4955C52.3195 72.1199 53.2795 71.1599 53.2795 69.6719C53.2795 68.2079 52.2955 67.2479 50.5675 67.2479ZM61.0002 80.9999V64.6799H64.2402V80.9999H61.0002ZM68.4055 80.9999V78.3359L77.3335 67.3439H68.4055V64.6799H81.0295V67.3439L72.1015 78.3359H81.0295V80.9999H68.4055ZM85.2317 80.9999V64.6799H96.7037V67.2479H88.4717V71.3279H95.7917V73.8719H88.4717V78.4319H96.7037V80.9999H85.2317ZM106.791 80.9999V64.6799H112.863C116.775 64.6799 119.199 66.6959 119.199 70.0319C119.199 73.4639 116.751 75.4319 112.911 75.4319H110.031V80.9999H106.791ZM112.815 67.2479H110.031V72.8639H112.743C114.807 72.8639 115.887 71.7599 115.887 70.0559C115.887 68.3519 114.783 67.2479 112.815 67.2479ZM130.507 81.3599C125.563 81.3599 122.515 78.1199 122.515 72.8639C122.515 67.6079 125.563 64.3199 130.507 64.3199C135.451 64.3199 138.523 67.6079 138.523 72.8639C138.523 78.1199 135.451 81.3599 130.507 81.3599ZM130.507 78.6719C133.459 78.6719 135.211 76.4879 135.211 72.8639C135.211 69.2399 133.459 67.0079 130.507 67.0079C127.555 67.0079 125.827 69.2159 125.827 72.8639C125.827 76.4879 127.555 78.6719 130.507 78.6719ZM150.065 81.3599C145.121 81.3599 142.073 78.1199 142.073 72.8639C142.073 67.6079 145.121 64.3199 150.065 64.3199C155.009 64.3199 158.081 67.6079 158.081 72.8639C158.081 78.1199 155.009 81.3599 150.065 81.3599ZM150.065 78.6719C153.017 78.6719 154.769 76.4879 154.769 72.8639C154.769 69.2399 153.017 67.0079 150.065 67.0079C147.113 67.0079 145.385 69.2159 145.385 72.8639C145.385 76.4879 147.113 78.6719 150.065 78.6719ZM162.182 80.9999V64.6799H165.422V78.3839H172.982V80.9999H162.182Z" fill="white"/>
<path d="M62.5839 142.96C62.5839 149.56 57.3639 154.9 47.4639 154.9C38.7039 154.9 32.9439 150.1 31.8039 142.36H39.6039C40.2639 146.14 42.7239 148.54 47.4039 148.54C52.1439 148.54 54.7839 146.44 54.7839 142.66C54.7839 139.78 53.1039 137.08 45.8439 137.08H43.6239V131.38H45.4239C52.5039 131.38 53.7039 128.44 53.7039 126.1C53.7039 122.86 51.4839 120.88 47.4639 120.88C43.2039 120.88 40.9839 123.1 40.3239 126.82H32.6439C33.6639 119.26 39.1239 114.52 47.5239 114.52C56.6439 114.52 61.5039 119.68 61.5039 126.04C61.5039 129.58 60.0039 132.22 56.5839 133.84C60.8439 135.76 62.5839 138.94 62.5839 142.96ZM82.0342 154.9C72.9742 154.9 67.0342 150.28 67.0342 143.08C67.0342 138.88 69.3142 135.76 73.0342 133.9C70.0942 132.1 68.3542 129.28 68.3542 125.68C68.3542 118.96 73.8142 114.52 82.0342 114.52C90.2542 114.52 95.7742 118.84 95.7742 125.68C95.7742 129.28 93.9742 132.1 90.9142 133.9C94.7542 135.82 97.0342 139.06 97.0342 143.02C97.0342 150.34 91.0942 154.9 82.0342 154.9ZM82.0342 120.76C78.3142 120.76 75.8542 122.74 75.8542 126.04C75.8542 129.46 78.3142 131.44 82.0342 131.44C85.7542 131.44 88.2142 129.4 88.2142 126.04C88.2142 122.62 85.8142 120.76 82.0342 120.76ZM82.0342 148.66C86.4742 148.66 89.2942 146.5 89.2942 142.66C89.2942 138.88 86.4142 136.6 82.0342 136.6C77.6542 136.6 74.7742 138.82 74.7742 142.72C74.7742 146.44 77.6542 148.66 82.0342 148.66ZM102.685 154V110.8H110.365V135.28L122.005 121.84H131.005L118.045 136.12L131.905 154H122.485L110.365 138.46V154H102.685ZM137.466 137.74V131.8H146.526V122.62H152.886V131.8H161.886V137.74H152.886V146.98H146.526V137.74H137.466Z" fill="#F9F9F9"/>
<g clip-path="url(#clip0_272_1796)">
<path d="M406.189 97.2466C401.542 99.9292 398.152 104.348 396.764 109.53C395.375 114.712 396.102 120.234 398.784 124.88C401.467 129.527 405.885 132.917 411.068 134.306C416.25 135.694 421.772 134.967 426.418 132.285C431.064 129.602 434.455 125.184 435.843 120.001C437.232 114.819 436.505 109.297 433.822 104.651C431.14 100.005 426.721 96.6143 421.539 95.2257C416.357 93.8371 410.835 94.564 406.189 97.2466ZM408.795 119.1C407.646 117.109 407.334 114.743 407.929 112.522C408.524 110.301 409.977 108.407 411.969 107.257C413.96 106.108 416.326 105.796 418.547 106.391C420.768 106.986 422.662 108.439 423.812 110.431C424.961 112.422 425.273 114.788 424.678 117.009C424.083 119.23 422.63 121.124 420.638 122.274C418.647 123.423 416.281 123.735 414.06 123.14C411.839 122.545 409.945 121.092 408.795 119.1Z" fill="#F9F9F9"/>
<path d="M412.51 44.3169L383.717 31.1946L352.195 111.715L348.931 113.553L348.96 113.603L346.407 115.077L381.086 175.142L486.2 114.454L451.521 54.3891L446.706 57.1692L420.945 34.675L412.51 44.3169ZM436.129 63.2755L385.935 92.2554L415.963 57.9269L422.174 51.0909L436.129 63.2755ZM404.567 53.401L373.57 88.8363L390.036 46.7741L404.567 53.401ZM380.025 150.186L367.483 128.463C369.166 126.497 370.387 124.18 371.058 121.68C371.728 119.181 371.83 116.563 371.358 114.019L438.13 75.4683C440.097 77.1511 442.415 78.3722 444.915 79.0421C447.416 79.7121 450.034 79.8137 452.579 79.3397L465.121 101.063C463.438 103.03 462.217 105.348 461.547 107.849C460.877 110.349 460.775 112.967 461.249 115.512L394.487 154.057C392.516 152.376 390.196 151.156 387.694 150.487C385.192 149.817 382.572 149.714 380.025 150.186Z" fill="#F9F9F9"/>
</g>
<defs>
<clipPath id="clip0_272_1796">
<rect width="138.715" height="138.715" fill="white" transform="translate(310 69.3573) rotate(-30)"/>
</clipPath>
</defs>
</svg>
