<svg width="1044" height="67" viewBox="0 0 1044 67" fill="none" xmlns="http://www.w3.org/2000/svg">
<path d="M31.024 66.96C11.536 66.96 0.592 59.28 0.592 44.304V43.728H14.992V45.456C14.992 51.408 17.968 53.808 31.024 53.808C42.544 53.808 45.232 52.08 45.232 47.76C45.232 43.824 43.024 42.384 36.4 41.232L18.352 38.64C6.832 36.816 0.0160002 31.056 0.0160002 20.592C0.0160002 10.896 7.888 0.719999 29.488 0.719999C49.264 0.719999 58.48 9.84 58.48 23.376V23.952H43.984V22.608C43.984 16.464 40.816 13.872 28.048 13.872C17.68 13.872 14.512 15.888 14.512 20.016C14.512 23.76 16.624 25.104 22 26.064L40.048 28.944C54.448 31.248 59.632 38.256 59.632 47.088C59.632 57.552 51.472 66.96 31.024 66.96ZM96.6003 66.96C75.6723 66.96 65.0163 56.4 65.0163 39.12V1.68H79.4163V38.064C79.4163 49.008 83.5443 52.944 96.6003 52.944C109.752 52.944 113.784 49.008 113.784 38.064V1.68H128.184V39.12C128.184 56.4 117.624 66.96 96.6003 66.96ZM149.834 66H135.434V1.68H154.922L169.994 33.36L176.042 48.432H177.098L182.954 33.36L197.546 1.68H217.13V66H202.73V33.36L203.21 23.28H202.154L198.41 33.36L184.97 62.16H167.498L154.058 33.36L150.314 23.28H149.258L149.834 33.36V66ZM239.084 66H224.684V1.68H244.172L259.244 33.36L265.292 48.432H266.348L272.204 33.36L286.796 1.68H306.38V66H291.98V33.36L292.46 23.28H291.404L287.66 33.36L274.22 62.16H256.748L243.308 33.36L239.564 23.28H238.508L239.084 33.36V66ZM328.334 66H313.934V1.68H328.334V66ZM371.679 66H357.279V14.64H333.375V1.68H395.583V14.64H371.679V66ZM442.535 66.96C424.007 66.96 413.447 61.104 413.447 48.144C413.447 38.64 419.591 33.456 428.903 32.4V31.344C420.359 30.384 416.039 24.72 416.039 17.616C416.039 5.904 425.351 0.623995 441.287 0.623995H452.903V13.776H439.271C433.127 13.776 430.439 15.216 430.439 20.496C430.439 25.584 433.607 27.024 439.175 27.024H457.799V17.904H472.007V27.024H481.895V38.832H472.007V42.864C472.007 57.648 464.327 66.96 442.535 66.96ZM443.015 53.808C455.015 53.808 457.799 51.888 457.799 43.632V38.832H436.967C431.399 38.832 428.039 40.656 428.039 46.32C428.039 51.792 431.303 53.808 443.015 53.808ZM555.96 66H501.528V1.68H555.96V14.64H515.928V27.216H554.52V40.08H515.928V53.04H555.96V66ZM576.961 66H558.145L583.201 34.224V33.168L558.145 1.68H576.961L595.009 24.624H596.065L613.441 1.68H632.257L607.297 33.456V34.512L632.257 66H613.441L595.489 42.768H594.433L576.961 66ZM649.99 66H635.59V1.68H669.19C684.07 1.68 693.67 10.128 693.67 24.912C693.67 39.696 684.07 48.24 669.19 48.24H649.99V66ZM667.654 14.64H649.99V35.28H667.654C675.622 35.28 679.366 32.976 679.366 24.912C679.366 17.04 675.622 14.64 667.654 14.64ZM731.898 66.96C710.586 66.96 697.338 53.904 697.338 33.84C697.338 13.776 710.586 0.719999 731.898 0.719999C753.69 0.719999 766.842 13.776 766.842 33.84C766.842 53.904 753.69 66.96 731.898 66.96ZM731.898 53.136C746.01 53.136 751.482 48.144 751.482 33.84C751.482 19.536 746.01 14.544 731.898 14.544C717.786 14.544 712.602 19.536 712.602 33.84C712.602 48.144 717.786 53.136 731.898 53.136ZM843.422 66H786.302V56.784C786.302 45.456 791.198 39.6 804.734 35.088L821.246 29.712C827.006 27.696 829.118 25.776 829.118 21.552C829.118 16.656 826.43 13.872 815.87 13.872C804.062 13.872 800.51 17.424 800.51 24.528V25.776H786.398V24.528C786.398 12.048 794.942 0.719999 816.35 0.719999C835.742 0.719999 843.614 9.552 843.614 21.744C843.614 33.168 836.126 38.832 824.702 42L810.686 45.84C804.446 47.76 801.47 49.584 801.47 54.672L818.27 53.04H843.422V66ZM880.435 66.96C859.699 66.96 848.275 53.904 848.275 33.84C848.275 13.872 859.699 0.719999 880.435 0.719999C901.075 0.719999 912.595 13.872 912.595 33.84C912.595 53.904 901.075 66.96 880.435 66.96ZM880.435 52.944C892.627 52.944 897.139 47.664 897.139 33.84C897.139 20.016 892.627 14.736 880.435 14.736C868.147 14.736 863.731 20.016 863.731 33.84C863.731 47.664 868.147 52.944 880.435 52.944ZM974.203 66H917.083V56.784C917.083 45.456 921.979 39.6 935.515 35.088L952.027 29.712C957.787 27.696 959.899 25.776 959.899 21.552C959.899 16.656 957.211 13.872 946.651 13.872C934.843 13.872 931.291 17.424 931.291 24.528V25.776H917.179V24.528C917.179 12.048 925.723 0.719999 947.131 0.719999C966.523 0.719999 974.395 9.552 974.395 21.744C974.395 33.168 966.907 38.832 955.483 42L941.467 45.84C935.227 47.76 932.251 49.584 932.251 54.672L949.051 53.04H974.203V66ZM1033.3 66H1018.9V53.712H978.096V43.92L1016.59 1.68H1033.3V40.752H1043.09V53.712H1033.3V66ZM998.16 40.752H1018.9V18.288H1017.84L998.16 39.696V40.752Z" fill="url(#paint0_linear_91_1694)"/>
<defs>
<linearGradient id="paint0_linear_91_1694" x1="-2" y1="35" x2="1045" y2="35" gradientUnits="userSpaceOnUse">
<stop stop-color="#E16028"/>
<stop offset="1" stop-color="#FDFF96"/>
</linearGradient>
</defs>
</svg>
