<svg width="295" height="231" viewBox="0 0 295 231" fill="none" xmlns="http://www.w3.org/2000/svg">
<path fill-rule="evenodd" clip-rule="evenodd" d="M295 0H0V231H254.772L295 189.953V0Z" fill="#F2BF6A"/>
<path d="M26.6761 49V32.68H32.9641C36.5401 32.68 38.7721 34.432 38.7721 37.216C38.7721 38.656 38.0521 39.76 36.7801 40.384C38.6521 41.008 39.6841 42.4 39.6841 44.272C39.6841 47.272 37.5241 49 33.7801 49H26.6761ZM32.8921 35.248H29.9161V39.472H32.8201C34.5481 39.472 35.4601 38.632 35.4601 37.384C35.4601 36.064 34.5241 35.248 32.8921 35.248ZM33.5161 41.872H29.9161V46.432H33.7081C35.3881 46.432 36.3721 45.52 36.3721 44.152C36.3721 42.784 35.3401 41.872 33.5161 41.872ZM54.7734 49L53.5254 45.616H46.5654L45.3174 49H42.0774L48.2214 32.68H52.0374L58.1814 49H54.7734ZM49.5654 37.528L47.5014 43.12H52.5894L50.5254 37.528L50.0454 35.848L49.5654 37.528ZM74.7239 37.72H71.3399C70.8359 35.944 69.4679 35.008 67.6439 35.008C64.9079 35.008 63.3239 37.24 63.3239 40.864C63.3239 44.512 64.8839 46.672 67.6439 46.672C69.3719 46.672 70.7399 45.784 71.2919 44.08H74.6999C73.8359 47.488 71.0279 49.36 67.6919 49.36C62.9159 49.36 60.0119 46.144 60.0119 40.864C60.0119 35.608 62.9639 32.32 67.7399 32.32C71.1239 32.32 73.9799 34.168 74.7239 37.72ZM78.5977 49V32.68H81.8377V40.432L88.3897 32.68H92.1817L85.2697 40.672L92.4937 49H88.3897L81.8377 41.44V49H78.5977ZM95.8111 49V32.68H107.283V35.248H99.0511V39.328H106.371V41.872H99.0511V46.432H107.283V49H95.8111ZM111.314 49V32.68H117.242C122.354 32.68 125.546 35.776 125.546 40.864C125.546 45.952 122.354 49 117.242 49H111.314ZM117.242 46.384C120.386 46.384 122.258 44.344 122.258 40.864C122.258 37.36 120.386 35.296 117.242 35.296H114.554V46.384H117.242ZM135.733 49V32.68H142.021C145.597 32.68 147.829 34.432 147.829 37.216C147.829 38.656 147.109 39.76 145.837 40.384C147.709 41.008 148.741 42.4 148.741 44.272C148.741 47.272 146.581 49 142.837 49H135.733ZM141.949 35.248H138.973V39.472H141.877C143.605 39.472 144.517 38.632 144.517 37.384C144.517 36.064 143.581 35.248 141.949 35.248ZM142.573 41.872H138.973V46.432H142.765C144.445 46.432 145.429 45.52 145.429 44.152C145.429 42.784 144.397 41.872 142.573 41.872ZM155.79 49V43.192L150.078 32.68H153.702L156.798 38.68L157.494 40.432L158.19 38.68L161.286 32.68H164.718L159.006 43.192V49H155.79Z" fill="black"/>
<g clip-path="url(#clip0_272_1797)">
<path d="M162.161 98.4412C165.768 98.4412 169.376 98.4412 173.092 98.4412C173.092 109.792 173.092 121.142 173.092 132.836C175.006 132.836 176.92 132.836 178.892 132.836C178.892 121.486 178.892 110.136 178.892 98.4412C198.714 98.4412 198.714 98.4412 202.465 101.642C202.555 101.716 202.555 101.716 202.647 101.792C205.177 103.947 206.031 107.488 206.388 110.646C206.401 110.759 206.401 110.759 206.414 110.874C206.591 112.617 206.566 114.381 206.565 116.131C206.565 116.438 206.565 116.744 206.565 117.051C206.565 117.565 206.565 118.08 206.565 118.595C206.564 119.183 206.564 119.77 206.565 120.358C206.565 120.87 206.565 121.382 206.565 121.894C206.565 122.196 206.565 122.499 206.565 122.802C206.568 126.727 206.568 126.727 206.388 128.677C206.383 128.728 206.378 128.779 206.374 128.832C206.028 132.598 205.121 136.569 202.116 139.123C198.77 141.845 193.833 142.269 189.675 142.217C189.649 144.616 189.649 144.616 190.691 146.686C191.432 147.313 192.381 147.376 193.308 147.378C193.449 147.379 193.449 147.379 193.592 147.38C193.847 147.382 194.102 147.383 194.357 147.384C194.624 147.385 194.891 147.387 195.158 147.389C195.663 147.393 196.168 147.395 196.672 147.398C197.248 147.401 197.823 147.404 198.398 147.408C199.58 147.416 200.762 147.422 201.945 147.428C201.845 148.532 201.724 149.632 201.589 150.733C201.569 150.893 201.549 151.054 201.53 151.215C201.489 151.548 201.448 151.881 201.407 152.215C201.355 152.642 201.303 153.069 201.251 153.497C201.211 153.827 201.17 154.157 201.13 154.487C201.11 154.645 201.091 154.803 201.072 154.961C201.045 155.18 201.018 155.398 200.991 155.617C200.984 155.682 200.976 155.747 200.968 155.814C200.938 156.056 200.906 156.279 200.829 156.511C199.381 156.518 197.933 156.523 196.485 156.526C195.812 156.528 195.14 156.53 194.467 156.533C193.881 156.536 193.294 156.538 192.707 156.539C192.397 156.539 192.087 156.54 191.777 156.542C187.874 156.569 187.874 156.569 186.477 155.32C186.427 155.277 186.377 155.235 186.325 155.191C184.881 153.877 184.483 151.506 184.321 149.662C184.247 149.662 184.174 149.662 184.098 149.662C184.097 149.707 184.096 149.753 184.094 149.8C183.993 151.756 183.329 153.792 181.88 155.149C181.205 155.705 180.367 155.997 179.529 156.199C179.469 156.214 179.409 156.228 179.347 156.243C178.164 156.508 177 156.532 175.794 156.528C175.62 156.528 175.445 156.528 175.271 156.528C174.8 156.528 174.33 156.527 173.859 156.526C173.417 156.525 172.974 156.525 172.531 156.525C171.655 156.525 170.779 156.524 169.903 156.522C169.052 156.521 168.202 156.52 167.352 156.519C167.273 156.519 167.273 156.519 167.193 156.519C166.929 156.519 166.665 156.519 166.402 156.519C164.22 156.517 162.038 156.514 159.856 156.511C159.71 155.384 159.564 154.258 159.419 153.131C159.352 152.608 159.285 152.085 159.217 151.561C159.151 151.056 159.086 150.552 159.022 150.047C158.997 149.854 158.972 149.661 158.947 149.469C158.912 149.199 158.877 148.929 158.843 148.659C158.832 148.58 158.822 148.5 158.811 148.418C158.763 148.035 158.728 147.666 158.74 147.279C158.829 147.279 158.918 147.279 159.01 147.279C161.127 147.275 163.245 147.269 165.362 147.262C165.623 147.262 165.884 147.261 166.145 147.26C166.197 147.26 166.249 147.26 166.303 147.259C167.142 147.257 167.982 147.255 168.821 147.253C169.684 147.252 170.546 147.249 171.409 147.246C171.893 147.244 172.377 147.243 172.861 147.242C173.317 147.242 173.774 147.24 174.23 147.238C174.397 147.237 174.563 147.237 174.73 147.237C176.543 147.272 176.543 147.272 178.13 146.507C179.119 145.352 178.977 143.639 179.041 142.217C173.471 142.217 167.9 142.217 162.161 142.217C162.161 127.771 162.161 113.325 162.161 98.4412ZM189.824 107.747C189.824 116.027 189.824 124.306 189.824 132.836C192.302 132.715 192.302 132.715 194.299 131.408C195.407 130.104 195.464 128.023 195.518 126.392C195.521 126.303 195.524 126.214 195.527 126.122C195.561 125.001 195.56 123.879 195.559 122.757C195.559 122.445 195.559 122.133 195.559 121.82C195.56 121.296 195.559 120.773 195.559 120.249C195.559 119.649 195.559 119.049 195.559 118.448C195.56 117.927 195.56 117.405 195.559 116.884C195.559 116.575 195.559 116.266 195.56 115.958C195.561 114.345 195.561 114.345 195.518 112.733C195.514 112.636 195.514 112.636 195.51 112.536C195.442 111.166 195.278 109.582 194.239 108.58C193.008 107.594 191.288 107.747 189.824 107.747Z" fill="black"/>
<path d="M49.5028 97.6222C60.1774 97.6222 70.8521 97.6222 81.8502 97.6222C82.0211 98.991 82.0211 98.991 82.0704 99.5976C82.0762 99.6668 82.0821 99.7359 82.0881 99.8072C82.1068 100.031 82.1252 100.254 82.1436 100.477C82.1567 100.635 82.1698 100.792 82.1829 100.95C82.2102 101.277 82.2373 101.605 82.2643 101.932C82.2988 102.351 82.3338 102.771 82.3688 103.19C82.3959 103.514 82.4228 103.838 82.4496 104.162C82.4624 104.317 82.4753 104.471 82.4882 104.626C82.5062 104.842 82.5239 105.057 82.5416 105.273C82.5469 105.336 82.5522 105.399 82.5577 105.465C82.5625 105.524 82.5673 105.583 82.5722 105.643C82.5764 105.694 82.5806 105.745 82.5849 105.797C82.596 106 82.5938 106.204 82.5938 106.407C79.4528 106.407 76.3117 106.407 73.0755 106.407C73.0755 108.52 73.0755 110.633 73.0755 112.81C73.8853 112.81 74.6951 112.81 75.5294 112.81C78.8734 112.983 82.439 113.495 84.8697 116.031C87.615 119.165 87.8105 123.573 87.8116 127.532C87.8118 127.681 87.812 127.83 87.8122 127.979C87.8128 128.446 87.813 128.913 87.8129 129.381C87.8129 129.802 87.8134 130.223 87.8144 130.643C87.8242 134.685 87.8242 134.685 87.7323 136.508C87.7294 136.567 87.7264 136.626 87.7234 136.687C87.4859 141.254 86.7609 146.409 83.6349 149.96C83.5411 150.068 83.5411 150.068 83.4455 150.179C80.3019 153.764 75.2092 154.715 70.6735 155.012C68.3962 155.145 66.1134 155.116 63.8332 155.112C63.1827 155.111 62.5323 155.111 61.8818 155.11C60.7224 155.11 59.563 155.109 58.4036 155.108C57.2796 155.106 56.1556 155.105 55.0316 155.105C54.9619 155.105 54.8922 155.105 54.8205 155.105C54.4708 155.104 54.1212 155.104 53.7716 155.104C50.8862 155.102 48.0008 155.1 45.1155 155.096C44.8741 153.511 44.8741 153.511 44.7851 152.769C44.772 152.662 44.772 152.662 44.7587 152.553C44.7307 152.324 44.703 152.095 44.6754 151.866C44.6557 151.703 44.636 151.541 44.6163 151.379C44.5755 151.043 44.5348 150.707 44.4943 150.371C44.4424 149.94 44.39 149.51 44.3375 149.08C44.2969 148.746 44.2566 148.413 44.2164 148.08C44.1972 147.921 44.1779 147.763 44.1585 147.604C44.1315 147.383 44.1049 147.162 44.0784 146.941C44.0704 146.876 44.0624 146.811 44.0542 146.744C44.047 146.683 44.0398 146.623 44.0324 146.561C44.0261 146.509 44.0198 146.457 44.0133 146.403C43.9969 146.198 43.998 145.996 44 145.79C44.0491 145.79 44.0982 145.79 44.1487 145.79C47.0636 145.784 49.9785 145.777 52.8933 145.77C53.2441 145.769 53.5949 145.768 53.9457 145.767C54.0155 145.767 54.0853 145.766 54.1572 145.766C55.2847 145.763 56.4121 145.761 57.5395 145.759C58.6982 145.756 59.8569 145.753 61.0156 145.75C61.7294 145.748 62.4431 145.746 63.1568 145.745C63.6477 145.744 64.1386 145.743 64.6294 145.741C64.9117 145.74 65.194 145.74 65.4763 145.739C68.4538 145.738 71.9231 145.675 74.2653 143.557C74.3207 143.508 74.3761 143.46 74.4332 143.41C76.4538 141.528 76.9362 138.436 77.091 135.814C77.101 135.487 77.1027 135.161 77.103 134.834C77.1034 134.741 77.1038 134.648 77.1041 134.553C77.105 134.301 77.1056 134.05 77.1059 133.798C77.1061 133.64 77.1064 133.482 77.1068 133.324C77.1078 132.826 77.1085 132.329 77.1088 131.831C77.1091 131.262 77.1104 130.693 77.1126 130.124C77.1142 129.68 77.115 129.237 77.1151 128.793C77.1151 128.53 77.1155 128.267 77.1169 128.003C77.1789 125.291 77.1789 125.291 76.1243 122.86C75.4492 122.221 74.6072 122.05 73.7122 121.959C73.6507 121.952 73.5892 121.946 73.5259 121.939C73.3758 121.923 73.2256 121.908 73.0755 121.892C73.0758 121.988 73.0762 122.083 73.0765 122.181C73.0795 123.087 73.0818 123.993 73.0832 124.898C73.084 125.364 73.085 125.829 73.0867 126.294C73.0884 126.745 73.0892 127.195 73.0896 127.646C73.0899 127.816 73.0904 127.987 73.0912 128.157C73.0974 129.502 73.0491 130.841 72.7966 132.166C72.7779 132.266 72.7779 132.266 72.7588 132.368C72.2963 134.734 71.386 136.805 69.7292 138.569C69.6901 138.613 69.651 138.657 69.6107 138.702C67.499 140.978 64.0243 141.718 61.0542 141.854C60.5965 141.868 60.139 141.87 59.6811 141.868C59.6119 141.868 59.5428 141.868 59.4716 141.867C55.8591 141.856 52.2441 141.137 49.5818 138.527C47.5555 136.484 46.6459 133.708 46.3052 130.901C46.2987 130.847 46.2921 130.794 46.2853 130.739C46.212 130.052 46.221 129.366 46.2224 128.677C46.2225 128.536 46.2225 128.395 46.2224 128.254C46.2224 127.873 46.2228 127.493 46.2233 127.112C46.2238 126.714 46.2239 126.315 46.2239 125.917C46.2242 125.163 46.2248 124.41 46.2255 123.656C46.2264 122.798 46.2268 121.94 46.2271 121.082C46.2279 119.317 46.2292 117.552 46.2309 115.788C46.6369 115.598 47.0431 115.408 47.4495 115.219C47.5877 115.155 47.7258 115.09 47.8639 115.026C48.0625 114.933 48.2614 114.84 48.4603 114.748C48.5218 114.719 48.5833 114.69 48.6467 114.66C48.7047 114.633 48.7628 114.607 48.8226 114.579C48.8733 114.555 48.924 114.532 48.9762 114.507C49.131 114.448 49.131 114.448 49.5028 114.373C49.5028 108.845 49.5028 103.318 49.5028 97.6222ZM59.0211 105.96C58.9582 106.825 58.9582 106.825 58.9232 107.689C58.9217 107.749 58.9201 107.81 58.9185 107.872C58.9137 108.066 58.9093 108.26 58.9049 108.454C58.9034 108.521 58.9018 108.588 58.9002 108.657C58.8668 110.091 58.8669 111.524 58.8724 112.959C60.4429 112.959 62.0134 112.959 63.6315 112.959C63.6315 110.649 63.6315 108.34 63.6315 105.96C62.1101 105.96 60.5887 105.96 59.0211 105.96ZM56.2697 121.744C56.2632 122.949 56.2632 122.949 56.2588 124.155C56.2575 124.648 56.256 125.141 56.2529 125.634C56.2504 126.032 56.2491 126.43 56.2486 126.829C56.2482 126.979 56.2474 127.13 56.2461 127.28C56.2334 128.919 56.239 130.735 57.4287 131.993C58.1341 132.661 59.0295 132.717 59.9489 132.703C60.7052 132.678 61.435 132.43 61.9793 131.885C62.8055 130.855 62.976 129.504 62.9707 128.226C62.9707 128.156 62.9708 128.085 62.9708 128.012C62.9707 127.781 62.9701 127.551 62.9696 127.32C62.9694 127.159 62.9693 126.998 62.9692 126.837C62.969 126.415 62.9682 125.993 62.9674 125.571C62.9665 125.064 62.9662 124.557 62.9657 124.05C62.965 123.281 62.9636 122.512 62.9623 121.744C60.7537 121.744 58.5452 121.744 56.2697 121.744Z" fill="black"/>
<path d="M92.4095 97.6222C95.8205 97.6222 99.2315 97.6222 102.746 97.6222C102.746 108.383 102.746 119.144 102.746 130.231C104.562 130.231 106.378 130.231 108.249 130.231C108.249 119.47 108.249 108.709 108.249 97.6222C127.557 97.6222 127.557 97.6222 131.341 101.305C134.094 104.227 134.511 108.698 134.509 112.528C134.509 112.65 134.51 112.771 134.51 112.893C134.511 113.219 134.511 113.546 134.511 113.872C134.511 114.077 134.511 114.283 134.511 114.488C134.512 115.209 134.512 115.93 134.512 116.652C134.512 117.316 134.513 117.981 134.514 118.646C134.515 119.222 134.515 119.799 134.515 120.375C134.515 120.717 134.516 121.059 134.516 121.4C134.538 131.458 134.538 131.458 131.524 134.995C131.431 135.106 131.431 135.106 131.337 135.219C128.977 137.962 125.147 138.761 121.707 139.063C120.76 139.134 119.819 139.175 118.87 139.173C118.755 139.173 118.64 139.174 118.525 139.174C118.213 139.174 117.9 139.173 117.588 139.173C117.245 139.173 116.901 139.173 116.558 139.173C115.893 139.173 115.228 139.173 114.563 139.172C113.793 139.172 113.023 139.172 112.253 139.172C110.223 139.171 108.192 139.17 106.162 139.169C101.624 139.168 97.0853 139.166 92.4095 139.164C92.4095 125.456 92.4095 111.747 92.4095 97.6222ZM118.585 106.482C118.585 114.319 118.585 122.156 118.585 130.231C119.536 130.244 119.536 130.244 120.463 130.142C120.518 130.132 120.574 130.123 120.631 130.112C121.663 129.915 122.497 129.446 123.121 128.593C124.325 126.7 124.047 123.943 124.043 121.795C124.043 121.408 124.043 121.022 124.044 120.636C124.044 119.988 124.043 119.34 124.042 118.692C124.041 117.948 124.042 117.203 124.043 116.458C124.044 115.814 124.044 115.169 124.043 114.525C124.043 114.142 124.043 113.759 124.044 113.376C124.044 113.017 124.044 112.657 124.043 112.297C124.042 112.167 124.042 112.036 124.043 111.905C124.048 110.376 124.012 108.553 122.909 107.377C121.74 106.279 120.084 106.482 118.585 106.482Z" fill="black"/>
<path d="M212.43 98.4412C222.932 98.4412 233.435 98.4412 244.256 98.4412C244.427 99.8961 244.427 99.8961 244.477 100.498C244.483 100.567 244.488 100.636 244.494 100.707C244.513 100.93 244.531 101.153 244.55 101.376C244.563 101.534 244.576 101.692 244.589 101.849C244.616 102.178 244.644 102.506 244.671 102.834C244.705 103.253 244.74 103.671 244.775 104.09C244.802 104.415 244.829 104.74 244.856 105.065C244.869 105.219 244.881 105.373 244.894 105.527C244.913 105.743 244.93 105.959 244.948 106.176C244.953 106.238 244.958 106.3 244.964 106.364C245.005 106.879 245 107.373 245 107.896C243.258 107.896 241.515 107.896 239.72 107.896C239.72 122.686 239.72 137.476 239.72 152.714C235.035 153.218 230.349 153.721 225.522 154.24C223.301 154.479 223.301 154.479 221.035 154.723C219.23 154.917 219.23 154.917 218.386 155.008C217.794 155.071 217.203 155.135 216.612 155.198C215.931 155.272 215.249 155.345 214.568 155.418C214.219 155.455 213.87 155.493 213.522 155.531C213.206 155.565 212.891 155.599 212.575 155.632C212.461 155.644 212.348 155.657 212.234 155.669C212.078 155.686 211.923 155.702 211.767 155.719C211.681 155.728 211.594 155.737 211.506 155.747C211.195 155.77 210.882 155.767 210.571 155.767C210.571 152.843 210.571 149.919 210.571 146.907C216.583 146.195 222.595 145.482 228.789 144.748C228.826 126.506 228.826 126.506 228.864 107.896C227.048 107.896 225.232 107.896 223.361 107.896C223.361 119.222 223.361 130.548 223.361 142.217C219.753 142.217 216.146 142.217 212.43 142.217C212.43 127.771 212.43 113.325 212.43 98.4412Z" fill="black"/>
<path d="M154.052 80.3433C156.789 83.0066 157.775 87.1946 157.852 90.8966C157.859 91.4856 157.858 92.0747 157.857 92.6638C157.857 92.8646 157.857 93.0654 157.857 93.2662C157.857 93.7018 157.857 94.1373 157.857 94.5728C157.856 95.2204 157.856 95.868 157.856 96.5156C157.856 97.6052 157.856 98.6948 157.856 99.7844C157.855 100.863 157.855 101.941 157.855 103.02C157.855 103.087 157.855 103.154 157.855 103.223C157.855 103.564 157.855 103.905 157.855 104.246C157.855 106.658 157.854 109.071 157.854 111.484C157.853 113.828 157.852 116.171 157.852 118.515C157.852 118.587 157.852 118.659 157.852 118.734C157.852 119.46 157.852 120.185 157.852 120.911C157.851 122.39 157.851 123.868 157.851 125.347C157.851 125.415 157.851 125.483 157.851 125.553C157.851 127.636 157.85 129.719 157.85 131.802C157.85 131.861 157.85 131.92 157.85 131.981C157.849 134.375 157.849 136.77 157.848 139.164C154.437 139.164 151.026 139.164 147.512 139.164C147.51 137.708 147.509 136.251 147.507 134.75C147.506 133.778 147.505 132.805 147.504 131.832C147.504 131.77 147.504 131.709 147.504 131.645C147.502 129.564 147.499 127.483 147.497 125.402C147.497 125.334 147.496 125.266 147.496 125.196C147.495 123.72 147.493 122.243 147.491 120.767C147.49 120.043 147.489 119.319 147.488 118.595C147.488 118.487 147.488 118.487 147.488 118.376C147.485 116.042 147.482 113.708 147.48 111.374C147.478 108.975 147.475 106.576 147.472 104.177C147.471 103.837 147.471 103.498 147.47 103.159C147.47 103.093 147.47 103.026 147.47 102.957C147.468 101.884 147.467 100.811 147.467 99.738C147.466 98.6585 147.464 97.579 147.463 96.4994C147.462 95.8586 147.461 95.2178 147.461 94.5769C147.461 94.148 147.46 93.7192 147.459 93.2903C147.458 93.0464 147.458 92.8026 147.458 92.5587C147.463 90.65 147.463 90.65 147.126 88.7768C147.11 88.7185 147.094 88.6602 147.078 88.6002C146.822 87.7136 146.433 86.9629 145.61 86.4954C144.489 85.9411 143.116 85.9268 141.934 86.306C141.473 86.5059 141.07 86.7345 140.745 87.125C140.693 87.1813 140.693 87.1813 140.64 87.2387C139.626 88.428 139.546 90.3506 139.54 91.8353C139.539 91.9214 139.539 92.0075 139.539 92.0963C139.538 92.278 139.537 92.4598 139.537 92.6416C139.536 92.9144 139.534 93.1871 139.532 93.4599C139.525 95.0147 139.575 96.44 140.343 97.8212C140.393 97.9117 140.393 97.9117 140.444 98.004C140.47 98.05 140.495 98.096 140.522 98.1434C139.28 98.1573 138.038 98.1678 136.796 98.1742C136.22 98.1773 135.643 98.1815 135.067 98.1883C134.564 98.1942 134.061 98.1981 133.559 98.1994C133.293 98.2002 133.027 98.202 132.76 98.2063C132.463 98.2111 132.166 98.2112 131.869 98.211C131.781 98.2131 131.693 98.2153 131.602 98.2175C131.019 98.2116 131.019 98.2116 130.761 98.0159C130.627 97.8658 130.516 97.718 130.408 97.5478C130.362 97.4745 130.362 97.4745 130.314 97.3998C130.234 97.2674 130.165 97.1332 130.097 96.9941C130.072 96.9436 130.047 96.8931 130.022 96.8411C129.551 95.8377 129.431 94.7385 129.429 93.6418C129.429 93.5687 129.429 93.4955 129.428 93.4202C129.428 93.1845 129.428 92.9489 129.428 92.7133C129.428 92.6328 129.428 92.5524 129.428 92.4695C129.43 91.2779 129.443 90.0958 129.59 88.9117C129.6 88.8367 129.609 88.7616 129.618 88.6843C130.016 85.5874 131.052 82.6941 133.234 80.4246C133.298 80.3541 133.298 80.3541 133.362 80.2821C135.37 78.1126 138.659 77.3208 141.488 77.0744C141.578 77.0662 141.667 77.0579 141.759 77.0494C146.041 76.7173 150.799 77.2847 154.052 80.3433Z" fill="black"/>
<path d="M231.827 83.553C231.88 83.6016 231.932 83.6503 231.987 83.7004C232.042 83.7514 232.098 83.8023 232.156 83.8548C234.49 86.2039 233.846 90.9711 233.846 93.6021C230.312 93.6021 226.778 93.6021 223.138 93.6021C223.138 85.6218 223.138 85.6218 224.846 83.7656C226.544 82.1936 230.038 82.0371 231.827 83.553Z" fill="#00BDA2"/>
<path d="M151.297 146.03C152.198 146.797 152.517 147.773 152.627 148.921C152.743 150.556 152.882 152.735 151.741 154.062C151.052 154.759 150.253 155.028 149.282 155.041C148.462 155.033 147.749 154.867 147.144 154.288C146.844 153.964 146.73 153.741 146.545 153.31C146.52 154.858 146.496 156.405 146.471 158C145.685 158 144.9 158 144.091 158C144.091 153.946 144.091 149.893 144.091 145.716C144.876 145.716 145.662 145.716 146.471 145.716C146.471 146.256 146.471 146.797 146.471 147.354C146.53 147.219 146.59 147.084 146.652 146.944C146.992 146.269 147.441 145.88 148.147 145.619C149.173 145.33 150.42 145.381 151.297 146.03ZM146.768 148.173C146.498 148.576 146.426 148.856 146.431 149.338C146.431 149.398 146.431 149.458 146.43 149.52C146.43 149.647 146.431 149.774 146.432 149.901C146.433 150.093 146.432 150.285 146.43 150.477C146.429 151.206 146.437 151.857 146.914 152.449C146.963 152.487 147.011 152.526 147.061 152.565C147.109 152.605 147.157 152.645 147.207 152.686C147.707 153.014 148.325 153.071 148.906 152.965C149.319 152.852 149.619 152.682 149.855 152.317C150.213 151.634 150.202 150.992 150.203 150.234C150.204 150.091 150.204 150.091 150.205 149.945C150.207 149.129 150.171 148.424 149.594 147.801C148.758 147.161 147.432 147.407 146.768 148.173Z" fill="#00BDA2"/>
<path d="M115.969 146.107C116.812 146.784 117.127 147.642 117.246 148.694C117.272 149.168 117.264 149.642 117.261 150.117C117.261 150.252 117.26 150.388 117.26 150.523C117.26 150.877 117.258 151.231 117.257 151.585C117.255 151.948 117.254 152.31 117.254 152.672C117.252 153.381 117.249 154.09 117.246 154.799C116.437 154.799 115.627 154.799 114.792 154.799C114.792 154.307 114.792 153.816 114.792 153.31C114.694 153.506 114.596 153.703 114.495 153.905C114.11 154.483 113.585 154.788 112.924 154.971C112.016 155.138 110.968 155.097 110.154 154.631C109.601 154.243 109.269 153.755 109.141 153.086C109.057 152.173 109.021 151.214 109.574 150.439C110.478 149.421 111.972 149.328 113.231 149.141C113.291 149.132 113.352 149.123 113.414 149.113C113.876 149.045 114.324 148.983 114.792 148.992C114.72 148.563 114.646 148.206 114.346 147.875C113.468 147.343 112.338 147.429 111.372 147.652C110.863 147.795 110.332 147.946 109.86 148.187C109.736 148.247 109.736 148.247 109.513 148.247C109.534 147.982 109.556 147.717 109.578 147.452C109.587 147.339 109.587 147.339 109.596 147.224C109.602 147.152 109.608 147.079 109.614 147.004C109.62 146.937 109.625 146.871 109.631 146.802C109.664 146.594 109.718 146.426 109.81 146.237C111.411 145.23 114.377 145.033 115.969 146.107ZM113.793 150.69C113.701 150.702 113.608 150.715 113.512 150.727C112.535 150.834 112.535 150.834 111.697 151.295C111.469 151.601 111.462 151.909 111.482 152.281C111.542 152.606 111.641 152.725 111.892 152.937C112.387 153.184 112.987 153.159 113.518 153.038C114.039 152.849 114.471 152.538 114.771 152.069C114.893 151.754 114.892 151.493 114.881 151.16C114.88 151.102 114.879 151.043 114.878 150.983C114.875 150.84 114.871 150.698 114.867 150.555C114.512 150.555 114.144 150.642 113.793 150.69Z" fill="#00BDA2"/>
<path d="M133.755 145.716C134.564 145.716 135.374 145.716 136.209 145.716C136.21 145.893 136.211 146.07 136.212 146.252C136.216 146.838 136.221 147.425 136.226 148.011C136.229 148.366 136.232 148.721 136.234 149.077C136.236 149.42 136.239 149.763 136.243 150.106C136.244 150.237 136.245 150.367 136.246 150.498C136.221 151.598 136.221 151.598 136.687 152.561C137.113 152.904 137.554 152.965 138.093 152.924C138.537 152.847 138.928 152.652 139.257 152.342C139.517 151.957 139.599 151.668 139.596 151.201C139.597 151.112 139.597 151.112 139.598 151.02C139.6 150.825 139.6 150.63 139.6 150.434C139.601 150.298 139.603 150.162 139.604 150.026C139.607 149.669 139.609 149.312 139.61 148.955C139.611 148.59 139.614 148.225 139.617 147.861C139.623 147.146 139.627 146.431 139.629 145.716C140.439 145.716 141.249 145.716 142.083 145.716C142.083 148.713 142.083 151.711 142.083 154.799C141.273 154.799 140.464 154.799 139.629 154.799C139.629 154.283 139.629 153.767 139.629 153.235C139.579 153.347 139.528 153.459 139.476 153.575C139.111 154.297 138.59 154.661 137.836 154.929C136.971 155.164 135.933 155.105 135.128 154.705C134.479 154.308 134.115 153.733 133.903 153.012C133.739 152.155 133.735 151.304 133.74 150.434C133.74 150.297 133.741 150.161 133.741 150.024C133.741 149.667 133.743 149.311 133.744 148.954C133.746 148.589 133.747 148.223 133.747 147.858C133.749 147.144 133.752 146.43 133.755 145.716Z" fill="#00BDA2"/>
<path d="M100.143 146.088C100.367 146.312 100.346 146.582 100.376 146.884C100.382 146.943 100.388 147.002 100.395 147.062C100.431 147.41 100.447 147.749 100.441 148.098C100.127 148.045 99.839 147.948 99.539 147.842C98.7984 147.593 98.1232 147.49 97.3406 147.479C97.2743 147.478 97.208 147.477 97.1397 147.475C96.6596 147.476 96.1869 147.518 95.8302 147.875C95.7952 148.026 95.7952 148.026 95.793 148.196C95.7891 148.253 95.7853 148.309 95.7814 148.367C95.8574 148.644 96.0388 148.777 96.2763 148.917C96.5131 149.013 96.7543 149.077 97.0014 149.141C97.0699 149.159 97.1385 149.178 97.2092 149.197C97.5399 149.287 97.8717 149.373 98.2039 149.457C99.0864 149.684 100.088 149.948 100.589 150.778C100.787 151.231 100.851 151.656 100.845 152.146C100.844 152.208 100.844 152.27 100.843 152.334C100.823 153.048 100.65 153.622 100.146 154.145C99.0148 155.134 97.47 155.087 96.0532 155.022C95.259 154.953 94.3946 154.772 93.6737 154.426C93.5456 154.222 93.5015 154.044 93.4779 153.806C93.4685 153.715 93.4685 153.715 93.459 153.621C93.4532 153.558 93.4473 153.496 93.4413 153.431C93.4349 153.368 93.4284 153.306 93.4218 153.242C93.3896 152.916 93.3687 152.596 93.3762 152.267C93.7875 152.334 94.172 152.482 94.5635 152.62C95.2757 152.865 95.942 152.963 96.6946 152.961C96.8045 152.963 96.8045 152.963 96.9165 152.964C97.4191 152.965 97.8889 152.93 98.2841 152.584C98.3932 152.338 98.3911 152.161 98.3585 151.895C97.9456 151.257 97.0831 151.164 96.3882 150.992C94.2918 150.473 94.2918 150.473 93.7001 149.638C93.6571 149.555 93.6571 149.555 93.6132 149.471C93.5836 149.416 93.554 149.36 93.5235 149.303C93.2348 148.659 93.2549 147.646 93.5017 146.996C93.8257 146.348 94.3154 145.972 94.9843 145.715C96.6341 145.197 98.5733 145.407 100.143 146.088Z" fill="#00BDA2"/>
<path d="M129.367 143.334C129.379 144.157 129.336 144.965 129.293 145.79C130.373 145.79 131.452 145.79 132.565 145.79C132.443 147.625 132.443 147.625 132.342 147.726C132.122 147.733 131.904 147.735 131.684 147.733C131.585 147.733 131.585 147.733 131.484 147.733C131.273 147.733 131.061 147.732 130.85 147.731C130.707 147.73 130.564 147.73 130.421 147.73C130.07 147.729 129.719 147.728 129.367 147.726C129.372 148.281 129.378 148.837 129.385 149.392C129.388 149.65 129.391 149.908 129.393 150.166C129.395 150.462 129.4 150.759 129.404 151.056C129.404 151.148 129.405 151.24 129.405 151.335C129.41 151.945 129.41 151.945 129.665 152.491C130.084 152.883 130.65 152.818 131.189 152.811C131.589 152.794 131.932 152.692 132.309 152.556C132.491 152.491 132.491 152.491 132.639 152.491C132.622 152.824 132.605 153.156 132.584 153.489C132.572 153.68 132.565 153.867 132.564 154.059C132.56 154.231 132.56 154.231 132.491 154.501C131.819 155.095 130.499 155.06 129.665 155.022C128.886 154.965 128.096 154.774 127.546 154.18C126.913 153.328 126.891 152.333 126.899 151.31C126.899 151.206 126.899 151.102 126.9 150.998C126.9 150.728 126.902 150.457 126.903 150.186C126.905 149.908 126.905 149.631 126.906 149.353C126.908 148.811 126.91 148.268 126.913 147.726C126.496 147.726 126.079 147.726 125.649 147.726C125.649 147.087 125.649 146.449 125.649 145.79C126.091 145.79 126.533 145.79 126.988 145.79C126.969 145.549 126.969 145.549 126.951 145.302C126.909 144.72 126.906 144.141 126.913 143.557C127.211 143.519 127.508 143.482 127.806 143.445C127.931 143.429 127.931 143.429 128.059 143.413C128.499 143.359 128.924 143.321 129.367 143.334Z" fill="#00BDA2"/>
<path d="M104.977 143.334C104.979 143.52 104.98 143.706 104.981 143.892C104.982 143.942 104.983 143.993 104.983 144.045C104.986 144.631 104.939 145.2 104.902 145.79C105.982 145.79 107.062 145.79 108.174 145.79C108.136 146.436 108.097 147.083 108.025 147.726C107.019 147.726 106.013 147.726 104.977 147.726C104.98 148.28 104.984 148.833 104.99 149.387C104.993 149.644 104.996 149.902 104.997 150.16C104.998 150.456 105.002 150.752 105.006 151.049C105.006 151.14 105.006 151.232 105.006 151.327C105.014 151.826 105.038 152.165 105.348 152.565C105.712 152.779 106.049 152.827 106.464 152.821C106.518 152.821 106.572 152.821 106.628 152.82C107.195 152.806 107.711 152.666 108.249 152.491C108.256 152.97 108.229 153.434 108.174 153.91C108.167 153.974 108.16 154.039 108.153 154.105C108.135 154.262 108.118 154.419 108.1 154.575C106.846 155.049 105.351 155.263 104.064 154.782C103.409 154.478 103.004 154.109 102.737 153.434C102.499 152.708 102.502 151.936 102.508 151.179C102.508 151.079 102.509 150.979 102.509 150.878C102.509 150.617 102.511 150.357 102.512 150.096C102.514 149.828 102.515 149.561 102.515 149.293C102.517 148.771 102.52 148.248 102.523 147.726C102.106 147.726 101.688 147.726 101.259 147.726C101.259 147.087 101.259 146.449 101.259 145.79C101.7 145.79 102.142 145.79 102.597 145.79C102.597 145.053 102.597 144.316 102.597 143.557C103.02 143.502 103.02 143.502 103.452 143.445C103.584 143.428 103.584 143.428 103.718 143.41C104.142 143.356 104.55 143.321 104.977 143.334Z" fill="#00BDA2"/>
<path d="M124.055 145.558C124.152 145.558 124.249 145.557 124.348 145.557C124.555 145.565 124.71 145.587 124.906 145.642C124.931 145.967 124.955 146.293 124.98 146.619C124.987 146.711 124.994 146.803 125.002 146.898C125.008 146.987 125.015 147.076 125.022 147.168C125.028 147.25 125.034 147.332 125.041 147.416C125.054 147.644 125.057 147.87 125.054 148.098C124.966 148.091 124.878 148.084 124.788 148.077C123.853 148.008 123.036 147.996 122.229 148.545C121.745 148.991 121.745 148.991 121.548 149.588C121.546 149.684 121.545 149.781 121.544 149.88C121.543 149.933 121.543 149.986 121.542 150.041C121.54 150.216 121.538 150.392 121.536 150.567C121.534 150.689 121.533 150.811 121.531 150.932C121.527 151.253 121.523 151.573 121.52 151.894C121.515 152.278 121.511 152.662 121.506 153.046C121.498 153.631 121.492 154.215 121.485 154.799C120.7 154.799 119.915 154.799 119.105 154.799C119.105 151.801 119.105 148.804 119.105 145.716C119.866 145.716 120.627 145.716 121.411 145.716C121.411 146.306 121.411 146.895 121.411 147.503C121.483 147.343 121.555 147.183 121.629 147.019C121.91 146.436 122.28 145.997 122.879 145.721C123.28 145.589 123.632 145.557 124.055 145.558Z" fill="#00BDA2"/>
</g>
<defs>
<clipPath id="clip0_272_1797">
<rect width="201" height="81" fill="white" transform="translate(44 77)"/>
</clipPath>
</defs>
</svg>
