<svg width="329" height="252" viewBox="0 0 329 252" fill="none" xmlns="http://www.w3.org/2000/svg">
<path fill-rule="evenodd" clip-rule="evenodd" d="M301 21H0V252H259.953L301 210.953V21Z" fill="url(#paint0_linear_272_1795)"/>
<path d="M27.3963 72V58.344H22.1403V55.68H35.8923V58.344H30.6363V72H27.3963ZM39.5872 72V55.68H42.8272V72H39.5872ZM47.4725 72V55.68H51.7685L55.8965 66.216L56.4965 68.256L57.1205 66.216L61.2245 55.68H65.4005V72H62.1845L62.3045 59.328L61.1045 63.096L57.6005 72H55.2725L51.7445 63.048L50.5685 59.376L50.7125 72H47.4725ZM70.0532 72V55.68H81.5252V58.248H73.2932V62.328H80.6132V64.872H73.2932V69.432H81.5252V72H70.0532Z" fill="white"/>
<path d="M24.06 147V145.08C24.06 127.8 44.52 128.76 44.52 119.64C44.52 116.04 42.36 113.88 38.58 113.88C34.44 113.88 32.34 116.1 31.74 119.82H23.88C24.96 112.26 30.3 107.52 38.64 107.52C47.64 107.52 52.26 112.86 52.26 119.58C52.26 131.16 35.28 132.18 32.1 141.12H52.38V147H24.06ZM83.5303 147H75.7303V138.78H57.8503V131.94L76.5703 108.42H83.5303V132.9H88.5703V138.78H83.5303V147ZM64.0303 132.9H75.7303V117.66L64.0303 132.9ZM105.224 147V103.8H112.904V119.16C115.004 115.68 118.364 113.94 122.444 113.94C128.864 113.94 133.244 117.78 133.244 125.58V147H125.564V127.14C125.564 122.76 123.704 120.3 119.804 120.3C115.544 120.3 112.904 124.02 112.904 128.34V147H105.224ZM140.321 147V114.84H148.001V119.52C150.101 115.68 153.341 113.94 156.821 113.94C158.141 113.94 159.341 114.3 159.941 114.84V121.5C158.921 121.2 157.781 121.08 156.401 121.08C150.581 121.08 148.001 124.56 148.001 129.9V147H140.321ZM170.413 123.48C170.413 130.86 190.693 124.62 190.693 137.52C190.693 143.7 184.993 147.9 176.953 147.9C169.033 147.9 163.333 144.24 162.193 136.5H169.873C170.413 139.98 173.173 141.96 177.193 141.96C180.973 141.96 182.953 140.34 182.953 138C182.953 130.8 163.093 136.98 163.093 123.96C163.093 118.74 167.173 113.94 175.573 113.94C182.953 113.94 188.533 117.42 189.493 125.4H181.813C181.213 121.5 178.933 119.94 175.273 119.94C172.213 119.94 170.413 121.44 170.413 123.48Z" fill="white"/>
<path d="M274.5 11.3541C298.328 11.3541 317.646 30.6721 317.646 54.5C317.646 78.3278 298.328 97.6458 274.5 97.6458C250.672 97.6458 231.354 78.3278 231.354 54.5C231.354 30.6721 250.672 11.3541 274.5 11.3541ZM271.661 27.25C270.095 27.25 268.823 28.5216 268.823 30.0885V57.3385C268.823 58.9054 270.095 60.177 271.661 60.177H289.828C290.581 60.177 291.303 59.878 291.835 59.3457C292.368 58.8133 292.667 58.0913 292.667 57.3385C292.667 56.5857 292.368 55.8637 291.835 55.3313C291.303 54.799 290.581 54.5 289.828 54.5H274.5V30.0885C274.5 28.5216 273.228 27.25 271.661 27.25Z" fill="white"/>
<defs>
<linearGradient id="paint0_linear_272_1795" x1="0" y1="21" x2="223.138" y2="311.755" gradientUnits="userSpaceOnUse">
<stop stop-color="#6400FF"/>
<stop offset="0.13" stop-color="#6304FE"/>
<stop offset="0.27" stop-color="#5A08FF"/>
<stop offset="0.395" stop-color="#5218FF"/>
<stop offset="0.5" stop-color="#5218FF"/>
<stop offset="0.635" stop-color="#3945EF"/>
<stop offset="0.775" stop-color="#2960EE"/>
<stop offset="0.885" stop-color="#187AD4"/>
<stop offset="1" stop-color="#0192B4"/>
</linearGradient>
</defs>
</svg>
